<?xml version="1.0" encoding="UTF-8"?>
<svg id="Layer_1" data-name="Layer 1" xmlns="http://www.w3.org/2000/svg" xmlns:xlink="http://www.w3.org/1999/xlink" viewBox="0 0 2500 2500">
  <defs>
    <style>
      .cls-1 {
        clip-path: url(#clippath);
      }

      .cls-2 {
        fill: none;
      }

      .cls-2, .cls-3, .cls-4, .cls-5, .cls-6, .cls-7, .cls-8, .cls-9, .cls-10 {
        stroke-width: 0px;
      }

      .cls-3, .cls-4 {
        fill-rule: evenodd;
      }

      .cls-3, .cls-6 {
        fill: #506940;
      }

      .cls-4 {
        fill: #fff;
      }

      .cls-7 {
        fill: #e1a077;
      }

      .cls-8 {
        fill: #b45e27;
      }

      .cls-9 {
        fill: #678057;
      }

      .cls-10 {
        fill: #ffd4b9;
      }
    </style>
    <clipPath id="clippath">
      <rect class="cls-2" x="1222.75" y="88.18" width="1226.67" height="1772.89"/>
    </clipPath>
  </defs>
  <path class="cls-6" d="m1292.89,1469.89c-41.03-94.26-87.68-131.83-155.95-200.1-83.29-83.29-123.69-110.85-241.74-134.65-15.03-3.14-29.44-7.2-43.53-9.08-14.4-1.88-28.18-1.26-42.58,3.76-102.08-15.66-221.7,24.74-309.39,71.71-267.1,143.42-449.04,409.9-396.43,723.66,41.96,249.57,281.51,411.78,516.36,447.79,252.08,38.83,536.72-54.8,658.54-291.84,47.91-93.01,56.99-198.22,59.81-300.61,3.13-106.78-1.56-211.06-45.09-310.64Zm7.2,309.38c-2.82,97.07-10.33,196.34-55.42,284.33-114.3,222.33-382.34,308.13-619.08,271.49-219.82-33.82-445.6-183.19-484.74-416.47-49.79-296.54,124-547.99,377.02-683.27,79.54-42.59,186.94-80.79,280.26-68.58,5.33,3.76,12.53,4.39,19.1,1.25,12.53-6.26,24.74-5.32,37.27-2.82,10.96,1.88,21.92,5.01,33.51,7.52,108.66,21.61,145.61,47.6,222.33,124.32,64.51,64.51,109.29,99.27,147.8,188.2,41.02,94.26,44.78,192.9,41.96,294.04Zm-670.11-337.56c6.26-6.27,7.83-16.29,2.5-24.11-5.95-8.77-17.53-11.27-26.3-5.32-6.57,4.39-10.96,10.96-12.84,18.79-1.56,5.95-1.56,12.84-2.19,18.16-5.95,67.01-7.52,134.96-10.02,202.29-1.88,56.05-17.85,115.86-6.57,171.92,1.88,10.33,11.9,16.91,22.23,15.03,10.34-2.19,16.91-12.21,15.03-22.23-10.65-52.92,5.64-109.91,7.52-163.15,2.19-66.7,3.76-133.71,9.71-200.1l.94-11.27Zm219.82-46.97c-11.59,38.2-1.26,93.01.31,132.77,3.44,101.15,5.64,205.11,5.64,305.94,0,10.33,8.45,19.1,19.1,19.1s19.1-8.45,19.1-19.1c0-101.45-2.19-205.73-5.64-307.19-1.26-36.01-12.53-85.49-1.88-120.24,3.13-10.02-2.51-20.67-12.53-23.8-10.33-3.13-20.98,2.51-24.11,12.53Zm-482.86,498.21c-4.07,21.92,5.64,47.91,25.05,73.9,37.89,50.1,112.1,102.4,141.54,121.49,159.7,103.65,378.58,68.89,510.42-62.94,25.99-25.99,60.44-56.99,74.53-92.06,3.76-9.71-.94-20.67-10.65-24.74-9.71-3.76-20.67.94-24.74,10.65-12.21,30.69-43.53,56.68-66.07,79.54-119.3,119.31-317.83,151.88-462.51,57.62-23.8-15.34-78.29-53.23-115.55-93.32-11.59-12.53-21.61-25.05-27.87-37.26-5.01-9.08-7.83-17.85-6.58-25.99,1.88-10.33-4.7-20.35-15.03-22.23-10.65-1.57-20.67,5.32-22.55,15.34Zm755.61,67.95c3.13,5.64,9.39,9.71,16.59,9.71,10.65,0,19.1-8.45,19.1-19.1,0-.94,0-6.58-5.32-13.47-9.08-12.21-55.11-67.95-60.44-72.65-7.83-6.89-19.73-6.26-26.93,1.57-6.89,7.83-6.26,19.72,1.57,26.93,5.01,4.39,46.97,55.43,55.43,66.7v.31Zm-804.77-50.1c-8.45,6.26-10.33,18.16-4.07,26.61,6.27,8.46,18.17,10.33,26.62,4.07l.94-.94c1.26-.94,3.76-2.82,5.32-3.44,2.82-1.25,5.32-3.44,6.89-5.64,1.57-1.26,2.82-2.19,4.07-3.13,27.24-21.92,52.6-41.34,77.66-66.07,7.52-7.52,7.52-19.42,0-26.93s-19.42-7.52-26.93,0c-23.8,23.8-48.22,42.59-74.53,63.26-5.32,4.39-15.97,12.21-15.97,12.21Z"/>
  <path class="cls-3" d="m1648.01,1953.33s-24.32,89.42-73.65,179.79c-31.21,57.18-72.21,115.41-124.79,148.48-81.32,51.14-232.41,39.15-364.65-21.18-20.38-9.3-44.47-.3-53.76,20.07-9.3,20.38-.3,44.46,20.07,53.76,159.97,72.98,343.19,77.91,441.55,16.05,63.66-40.04,115.03-109.07,152.81-178.29,54.17-99.22,80.75-197.44,80.75-197.44,5.86-21.61-6.93-43.93-28.54-49.79-21.61-5.86-43.93,6.92-49.79,28.54Z"/>
  <path class="cls-4" d="m1616.37,1928.12s-16.61,37.08,21.28,54.28c37.88,17.21,81.5,25.6,100.72,17.54s30.42-43.9,30.42-43.9c0,0,46.74-15.24,83.99-54.26,37.25-39.01,56.18-74.18,88.71-106.04,32.53-31.86,71.91-66.06,73.68-87.81s-17.41-36.24-32.57-37.43c0,0,20.39-24.91.32-48.85-20.06-23.94-46.82-22.46-59.36-16.59,0,0-4.36-13.11-19.86-22.23-16.83-9.92-40.31-10.71-65.77,7.69-25.46,18.41-61.1,70.58-103.27,100.87,0,0-41.59,14.23-66.81,27.98-25.22,13.76-30.77,16.9-47.63,15.46-16.86-1.44-36.84-28.51-69.02-45.6-30.25-16.06-65.78-15.14-79.07-2.73-21.14,19.73-13.67,41.43,18.66,71.02s54.81,48.08,69.37,86c14.56,37.92,23.6,58.66,56.21,84.62Z"/>
  <path class="cls-3" d="m1611.03,1929.6c-2.09,6.48-5.53,21.4,1.26,35.45,3.85,7.97,10.92,15.74,23.5,21.46,23.18,10.53,48.47,17.8,69.23,20.18,14.5,1.66,26.88.86,35.1-2.59,8.47-3.56,15.69-11.88,21.11-20.74,5.81-9.49,9.62-19.49,11.13-23.79,9.73-3.55,50.42-19.82,83.69-54.66,37.21-38.97,56.1-74.11,88.6-105.94,19.62-19.22,41.71-39.3,56.64-56.99,10.66-12.64,17.62-24.3,18.38-33.67,1.74-21.26-14.24-36.41-29.66-40.96,5.32-9.64,12.46-29.39-3.63-48.59-19.79-23.62-45.65-24.28-60.48-19.44-2.7-5.1-8.6-13.72-19.9-20.38-18.09-10.66-43.35-11.85-70.71,7.92-25.35,18.32-60.78,70.12-102.71,100.46-5.37,1.88-43.24,15.19-66.89,28.08-23.91,13.05-29.09,16.3-45.08,14.93-6.07-.52-12.44-4.98-19.93-10.82-12.66-9.88-27.79-23.88-47.36-34.27-18.99-10.08-39.97-13.73-56.72-12.27-11.85,1.04-21.64,4.71-27.55,10.22-7.14,6.67-11.29,13.61-12.74,20.86-1.71,8.47.22,17.51,5.94,27.31,5.24,8.98,13.78,18.74,25.5,29.47,31.73,29.04,53.92,47.08,68.2,84.29,14.52,37.81,23.76,58.86,55.08,84.48Zm306.47-326.84c-2.31-4.09-7.16-10.8-16.09-16.06-15.58-9.18-37.27-9.58-60.84,7.46-25.46,18.41-61.1,70.58-103.28,100.88-.36.26-.75.46-1.17.6,0,0-41.16,14.07-66.12,27.68-26.52,14.46-32.44,17.51-50.18,15.98-7.43-.64-15.53-5.53-24.7-12.69-12.31-9.61-27.01-23.3-46.05-33.42-17.31-9.2-36.43-12.59-51.69-11.24-9.49.83-17.45,3.41-22.18,7.83-5.54,5.17-8.93,10.42-10.06,16.04-1.31,6.53.48,13.43,4.89,20.98,4.88,8.36,12.89,17.38,23.8,27.36,32.93,30.14,55.7,49.08,70.53,87.71,14.21,37.01,22.95,57.33,54.72,82.65,1.51,1.08,26.4,18.79,55.48,25.32,2.43.54,3.96,2.96,3.42,5.39-.55,2.43-2.96,3.96-5.39,3.41-23.6-5.29-44.6-17.53-53.87-23.49-1.59,5.98-3.04,16.24,1.67,25.98,3.1,6.43,8.95,12.56,19.1,17.17,22.28,10.12,46.57,17.15,66.52,19.43,12.63,1.44,23.43,1.06,30.59-1.95,6.9-2.9,12.49-9.92,16.91-17.14,3.34-5.46,5.96-11.1,7.81-15.55-9.1,2.39-24.11,5.09-41.02,3.15-2.47-.28-4.24-2.52-3.96-4.99.29-2.47,2.52-4.25,4.99-3.96,25.15,2.89,45.73-5.43,45.73-5.43l.15-.06c.06-.02.12-.04.18-.06,1.27-.42,46.19-15.45,82.1-53.07,37.29-39.06,56.24-74.26,88.81-106.16,19.42-19.02,41.29-38.85,56.06-56.36,9.14-10.84,15.63-20.56,16.29-28.59,1.55-18.93-15.19-31.51-28.39-32.57-.06,0-.13-.01-.19-.02h-.1s-.07-.02-.11-.03c-.12-.02-20.97-3.08-44.31,15.75-22.69,18.31-56.72,50.99-81.06,67.59,6.63,5.06,13.15,10.55,19.43,16.49,1.81,1.71,1.89,4.57.18,6.38s-4.57,1.89-6.38.18c-50.85-48.12-118.41-65.46-118.41-65.46-2.41-.62-3.86-3.08-3.24-5.49.62-2.41,3.08-3.86,5.49-3.25,0,0,15.22,3.91,36.8,13.14.3-.53.7-1.01,1.21-1.4,17.45-13.29,43.4-33.01,75.25-71.09,24.74-29.59,42.6-40.97,50.65-45.02Zm-270.45,156.52s45.01,22.15,55.48,69.23c.54,2.43,2.95,3.96,5.38,3.42,2.43-.54,3.96-2.95,3.42-5.38-11.4-51.21-60.3-75.36-60.3-75.36-2.23-1.1-4.94-.18-6.04,2.05-1.1,2.23-.18,4.94,2.05,6.04Zm333.4-93.51c3.83-5.72,13.64-23.78-.99-41.24-18.25-21.79-42.51-20.75-53.94-15.43-.16.08-.32.14-.49.2l-.14.04-.04.02s-19.19,6.06-51.08,44.2c-31.08,37.16-56.64,57.18-74.38,70.71,15.08,6.96,32.36,16.28,49.39,28.33,24.25-15.72,59.75-50.05,83.13-68.92,21.53-17.37,41.35-18.26,48.55-17.91Z"/>
  <path class="cls-10" d="m2022.71,1330.4l-5.44,6.64-.47.51c-1.71,1.94-3.84,3.3-6.01,4.62-4.33,2.54-9.18,4.76-14.44,6.59-9.12,3.19-19.24,5.89-30.94,8.22-18.34,3.68-38.51,6.58-63.43,9.13-39.2,3.95-81.08,5.94-127.99,6.08-46.57-.14-88.46-2.15-128.08-6.15-24.96-2.55-45.13-5.44-63.45-9.12-10.73-2.15-21.12-4.94-30.8-8.26-5.75-2.16-10.34-4.28-14.37-6.65-2.46-1.54-4.44-2.92-5.92-4.54-.34-.42-.68-.83-1.01-1.17l-5.42-5.42-.05,7.67c-.1,13.9-.36,27.83-.63,41.78l-.2,11.04c-.31,19.48-.14,39.73.51,60.18,1.4,43.39,4.81,82.55,10.43,119.73,7.27,47.48,16.84,84.38,30.1,116.14,8.81,20.84,18.52,37.88,29.69,52.11,12.93,16.33,28.19,29.22,45.35,38.33l.73.72h.14l.07.07h.43s.03.02.05.03v2.67c0,.53,0,1.05.06,1.29l.39,18.1c-.05,1.81-.07,3.62-.1,5.42-.03,2.26-.05,4.52-.16,6.83l-.19,6.09c-.05,1.54-.23,2.71-.98,3.82l-1.91,2.81,2.91,1.74c17.97,10.78,39.9,18.51,67.06,23.62,20.7,3.84,42.28,5.78,64.14,5.78,2.67,0,5.35-.03,7.99-.08,26.86-.36,50.44-2.6,72.08-6.85,13.58-2.68,24.97-5.92,34.86-9.94,4.69-1.95,10.73-4.67,15.91-8.33,5.21-3.57,8.48-7.3,9.98-11.42l.43-1.19-.48-1.16c-.33-.77-.42-1.72-.46-2.58l-.2-5.82c-.1-2.13-.13-4.25-.15-6.36-.03-1.7-.05-3.39-.1-4.89l.26-11.53.25-9.17.69.62,2.09-1.5c28.29-20.32,49.9-51.59,66.03-95.57,12.01-32.39,20.88-69.36,27.93-116.33,5.6-37.32,9.27-76.36,11.19-119.35.93-19.24,1.42-38.86,1.48-59.97l.05-15.35c.02-10.23.05-20.46.14-30.68l-.03-8.97Zm-139.63,462.93c-9.88,3.49-20.81,6.27-34.37,8.71-21.42,3.72-44.58,5.64-70.78,5.85h-2.15c-23.48,0-46.54-2.09-68.52-6.23-8.78-1.72-16.69-3.66-24.03-5.79,7.49,2.11,15.42,3.96,24.05,5.56,21.02,3.79,43.25,5.72,66.09,5.72l4.53-.03c26.75-.15,49.89-1.9,70.75-5.37,13.66-2.37,24.59-5.08,34.43-8.55,2.07-.77,4.15-1.58,6.22-2.4-2.01.86-4,1.72-6.22,2.53Z"/>
  <path class="cls-8" d="m1976.56,1354.75l-11.18,2.17c-18.44,3.58-38.59,6.41-63.41,8.89-11.08,1.03-22.67,1.93-35.45,2.77l-4.68.3,1.42-4.47c2.52-7.98,4.55-16.23,6.52-24.21l1.45-5.78.84-3.2,3.16.94c2.7.79,5.48,1.16,8.44,1.55l13.82,1.74c9.29,1.32,17.7,2.67,25.76,4.13,10.3,1.8,18.15,3.46,25.39,5.38,5.24,1.3,10.15,3.14,14.89,4.93l13.03,4.86Zm-199.24-26.03l-.94.05-3.59-.26h-4.3s.37,3.53.37,3.53c1.01,9.7,1.84,19.67,2.49,29.63l6.34.42c1.88-9.33,3.67-19.09,5.47-29.85l.49-4.38-4.44.75c-.61.1-1.25.1-1.89.11Zm-37.43,2.55l-.54-3.9-3.71,1.31c-.74.26-1.47.34-2.41.4l-5.93.52c-2.96.28-5.88.46-8.82.64l-2.82.17s-17.83.52-17.91.52c-.68,0-1.35,0-2.02-.06l-4-.31.57,3.97c1.84,12.81,2.76,22.64,2.98,31.88l.07,2.98,2.98.15c17.06.82,30.97,1.32,43.77,1.54l3.86.07-.65-3.81c-2.12-12.46-3.86-24.7-5.44-36.07Zm-77.33,4.53l-.53-4.26-3.93,1.71c-2.49,1.08-5.07,1.61-8.2,2.08l-11.02,1.74-5.21.9c-5.6.96-11.2,1.92-16.66,3.08-8.54,1.67-15.44,3.3-21.72,5.14-3.99,1.18-7.31,2.26-10.61,3.69l-2.51,1.1-8.98,4.16,9.72,1.9c18.21,3.56,38.24,6.34,63.02,8.76,3.57.35,7.11.63,10.66.91l11.33.94-.9-4.24c-2.15-10.05-3.51-20.04-4.44-27.62Z"/>
  <path class="cls-7" d="m1662.04,1331.9l.54,4.34-4.3-.79c-1.33-.24-2.64-.34-3.94-.34-1.47,0-2.93.13-4.39.3l-11.2,1.29c-6.91.89-14.13,2.06-22.02,3.56-8.74,1.92-15.42,3.66-21.55,5.61-3.74,1.27-7.19,2.44-10.43,3.9-2.49,1.11-5.05,2.43-6.93,4.58l-1.24,1.41-1.84-.39c-9.36-1.99-16.79-3.9-23.38-5.98-4.3-1.32-9.92-3.18-15.05-5.78-4.23-2.12-8.77-4.85-10.78-9.08h-4.87l4.83-5.07c2.23-4.79,7.65-7.75,12.46-10.38,5.56-2.82,11.41-4.81,16.41-6.4,12.21-3.71,24.69-6.15,34.2-7.86,10.55-2.07,21.89-3.91,34.65-5.6l17.33-2.18c4.19-.48,8.6-1.04,12.93-2.17l4.02-1.05v4.15c1.57,11.05,3.11,22.48,4.53,33.92Zm116.85-40.82l-2.04.04-13.04-.54.38,4.61c1.38,9.01,2.64,18.63,3.96,30.28l.36,3.16,4.27-.45,3.19-.26.98.05c.78.03,1.56.05,2.39.18l4.45.64.51-3.09c1.74-10.42,3.35-20.82,4.89-31.23l.58-3.85-6.86.31c-1.32.12-2.67.13-4.02.14Zm-43.88,6.56l-1.1-7.47-3.47.92c-.76.2-1.52.3-2.4.35l-5.88.51c-2.35.19-4.7.31-7.05.43l-4.7.27-18.93.42c-.58,0-1.07-.05-1.54-.16l-4.68-1.04.83,4.72c1.85,10.61,3.65,21.3,5.25,31.99l.55,3.71,3.57-1.13c.67-.21,1.36-.26,2.26-.31l6.01-.39,11.72-.89,3.03-.1c2.93-.11,5.86-.21,8.86-.21l5.96-.13c.69,0,1.43.06,2.17.16l4.24.61-1.58-11.02c-1.01-7.11-2.03-14.22-3.13-21.26Zm287.49,31.32c-1.39-2.67-3.55-4.44-5.72-5.98-2.17-1.49-4.74-2.95-7.86-4.48-6.02-2.9-12.43-4.94-17.35-6.4-12.67-3.76-25.45-6.14-36.24-7.97-11.08-2.06-23.08-3.9-36.7-5.61l-18.46-2.13c-5.01-.5-9.91-1.05-14.79-2.29l-3.02-.77-4.19,14.5c-1.6,5.78-3.08,11.55-4.56,17.36l-2.22,8.67,4.49-.36c.93-.08,1.84-.11,2.77-.11,2.01,0,4.02.15,5.98.35l12.99,1.41c10.03,1.19,18.23,2.34,25.74,3.61,9.6,1.86,17.91,3.81,25.29,5.94l1.5.47c3.77,1.19,7.33,2.32,10.9,3.8,3.83,1.56,6.49,3.27,8.38,5.39l1.24,1.39,1.83-.39c9.57-2.07,17.2-4.03,24.04-6.18,5.45-1.77,10.33-3.43,14.93-5.79,5.03-2.63,10.32-6.04,11.4-11.95v-1.81l-.35-.69Z"/>
  <path class="cls-9" d="m1697.59,1365.42l.85,4.07-4.15-.2c-9.07-.45-18.21-1.03-27.29-1.74l-2.97-.23.02-2.98c.05-9.95-.58-20.31-1.96-31.66-1.34-11.74-2.82-23.4-4.36-35.11-3.19-23.74-6.83-47.22-10.81-69.76-4.1-22.39-8.9-45.65-14.28-69.1-2.69-11.44-5.44-22.9-8.38-34.29-3.02-12.08-6.02-21.82-9.44-30.68l-.7-1.81,1.28-1.46c4.31-4.93,8.3-10.13,12.2-15.91l4.3-6.38,1.5,7.54c1.93,9.69,4.55,19.32,7.09,28.65l10.68,39.57c6.55,24.98,12.68,50.11,18.25,74.71,6.39,27.51,11.57,52.1,15.86,75.15,2.39,12.65,4.6,25.39,6.56,37.86l.45,2.96c1.55,10.15,3.14,20.64,5.29,30.8Zm-188.94-534.8c-30.89,7.41-65.16,11.01-104.8,11.01-14.17,0-29.16-.45-45.81-1.36-4.85-.19-9.73-.59-14.63-1-6.78-.56-13.8-1.13-20.8-1.13l-2.43.02c-13.14.26-25.7,2.2-37.34,5.76-12.11,3.62-23.68,9.58-33.47,17.22-4.55,3.65-8.86,7.92-12.78,12.67l-4.3-2.99c-.52,1.11-1.11,2.23-1.57,3.34l-6.14-1.64,1.32-10.45c4.97-39.44,10.1-80.21,18.87-119.71,2.34-11.01,5.25-22.8,8.89-36.01,3.76-13.3,6.98-24.32,11.41-35.18,5.4-13.49,12.23-23.3,20.9-29.99,8.31-6.52,18.29-11.29,27.95-15.9l4.23-2.03c20.78-9.79,44.29-20.88,66.5-32.9,5.94-3.09,11.72-6.34,17.48-9.58,15.6-8.78,31.74-17.85,49.21-22.51,8.6-2.36,16.18-3.51,23.14-3.51,4.74,0,9.25.55,13.4,1.65,11.79,2.74,22.3,10.21,29.49,21.01,6.12,8.88,10.7,20.02,13.98,34.01,2.63,11.46,4.23,23.48,4.77,35.73v.06c12.56,3.64,24.28,7.78,34.82,12.33,12.75,5.34,23.56,11.32,33.01,18.25,11.85,8.76,19.82,18.48,23.69,28.92,4.26,11.11,3.57,24.2-1.93,36.83-10.19,22.8-27.21,43.16-47.95,57.35-18.71,13.09-41.96,23.09-69.09,29.71Zm-256.5,10.89c8.49-9.78,18.46-19.8,31.19-31.21,22.05-19.43,47.3-38.6,79.49-60.36,26.2-17.81,53.8-35.24,84.37-53.27,13.14-7.74,27.31-15.85,43.36-24.79l2.72-1.51c.41-.23.84-.47,1.26-.7-1.33.72-2.71,1.46-4.03,2.18-13.61,7.46-27.84,15.48-43.48,24.53-30.96,18.06-58.68,35.38-84.72,52.92-32.13,22.02-57.27,41.35-79.11,60.85-12.59,11.35-22.52,21.44-31.04,31.36Zm384.82,216.38c-6.87,13.74-16.97,27.39-30.03,40.58-12.9,13.05-25.95,23.21-39.89,31.07-15.83,9.08-32.96,15.95-46.1,20.92-3.65,1.4-7.32,2.76-11.02,4.13-11.95,4.43-24.3,9.02-36.08,14.86-8.54,4.16-15.4,8.71-20.97,13.91-3.24,2.93-6,6.14-8.22,9.58l-4.46-1.91c-.09.77-.23,1.54-.3,2.31l-6.31.47c-3.34-13.79-7.3-27.71-11.05-40.79-5.29-16.57-8.32-33.97-8.97-51.63-1.39-30.13,4.6-61.84,19.43-102.79,6.46-18.46,14.24-33.72,23.77-46.61,10.99-15.05,24.7-26.71,39.64-33.7,10.92-5.14,22.91-7.86,34.67-7.86,5.65,0,11.24.63,16.59,1.87,9.33,2.2,17.33,5.82,23.8,10.77,5.33,4.09,11.83,10.95,13.41,20.57,1.76-.26,3.55-.44,5.35-.44,6.11,0,12.51,1.55,18.48,4.49,7.01,3.28,13.76,8.43,20.01,15.27,11.19,12.38,17.94,28.71,19.05,46.02,1.05,15.76-2.68,32.67-10.79,48.9Zm-189.47,102.72c3.27-9.65,6.99-19.27,11.15-28.8,8.88-20.54,20.23-42.29,34.7-66.48,13.44-22.38,27.74-43.17,42.5-61.79,6.88-8.78,14.5-17.96,23.94-28.9l1.33-1.56c.43-.51.87-1.02,1.3-1.53-9.71,11.04-18.69,21.6-26.9,31.76-16.04,20.09-30.45,40.81-42.83,61.58-14.2,24.19-25.41,46.06-34.24,66.82-4.4,10.34-7.98,19.83-10.95,28.89Zm-2.11,6.67c.29-.9.55-1.8.85-2.7-.24.78-.52,1.57-.74,2.34-.04.11-.07.24-.1.36Zm696.45-107.37c6.61,35.67,5.8,74.78-2.32,113.09-1.83,8.26-4.34,17.89-9.08,26.92-4.77,9.24-11.01,17.47-15.92,23.6l-3.67,4.61c-4.6,5.76-9.36,11.72-13.72,17.93-3.77,5.68-6.71,11.46-8.71,17.12l-6.21-.74-.04-.33c-.17-1.72-.34-3.48-.69-5.2-1.12-5.01-2.57-9.49-4.4-13.64-4.15-8.85-9.48-16.97-15.81-24.04-10.98-12.72-24.96-24.78-44.02-37.98-11.92-8.33-24.79-15.81-37.23-23.05-4.15-2.42-8.28-4.81-12.34-7.23-17.97-11.26-32.7-23.97-43.83-37.81-12.72-15.45-21.44-33.29-25.21-51.58-4.01-19.18-2.66-38.96,3.91-57.2,3.57-9.78,8.3-18.3,14.07-25.32,7.4-9.04,15.22-14.58,23.22-16.48,1.68-.4,3.42-.56,5.18-.6-.88.03-1.74.06-2.62.17l-6.81.88,3.71-5.79c1.24-1.94,2.31-4.06,3.39-6.67l5.16-11.97,10.19-23.85,14.54-36.11c.94-2.44,1.84-4.79,2.51-7.27l1.36-5.07,3.89,3.53c4.08,3.7,8.43,7.08,12.64,10.36l-1.72,2.71,2.22-2.31,1.92,1.82-1.43,2.22c-1.26,1.96-2.17,4.13-3.16,6.77l-12.66,32.3-7.92,21.68-3.91,10.83c-.72,2.05-1.52,4.55-1.9,7.19l-.65,4.52-.18-.09c1.16.75,2.32,1.47,3.44,2.35,6.29,4.83,12.22,11.31,18.08,19.74,10.42-17.3,25.79-29.09,42.32-32.43,3.95-.79,8.07-1.18,12.26-1.18,13.36,0,27.69,3.91,42.57,11.61,16.34,8.08,30.38,21.48,40.54,38.74,8.82,14.73,15.23,32.65,19.04,53.24Zm-84.7,70.79c-2.47-4.3-4.94-8.59-7.27-12.96-12.03-21.61-23.46-43.5-33.05-62.05,0,0-17.31-34.04-18.01-35.39.66,1.33,17.77,35.49,17.77,35.49,12.67,25.11,22.72,44.37,32.58,62.43,2.41,4.44,4.96,8.79,7.49,13.11,3.34,5.7,6.8,11.59,9.8,17.49,5.54,10.94,9.89,21.92,12.93,32.65,2.69,9.48,4.63,19.37,5.9,30.11-1.06-9.72-2.95-19.81-5.68-30.22-2.93-10.75-7.19-21.8-12.66-32.8-3.08-6.15-6.5-12.1-9.81-17.86Zm-102.16-167.08c-.27-.1-.51-.22-.78-.31-.62-.21-1.27-.31-1.91-.47.9.22,1.79.48,2.68.79Zm-4.32-1.19c-1.51-.28-3.04-.45-4.6-.46,1.52.02,3.05.18,4.6.46Zm312.86-193.68c1.24,9.72,2.44,21.1,2.09,32.7.06,19.03-2.76,37.4-5.73,56.85l-1.23,8.05c-4.48,34.61-5.15,72.15-2.08,118.08l-6.25,1.21c-.79-2.4-1.64-4.82-2.54-7.25l-4.46,2.97c-4.03-4.63-8.81-8.92-14.2-12.78-10.58-7.4-22.58-12.64-35.65-15.57-10.42-2.08-21.06-3.9-31.35-5.66-15.05-2.56-30.62-5.22-45.77-8.78-23.98-5.34-48.52-14.88-72.9-28.34-11.55-6.39-22.91-13.08-33.77-19.91-3.88-2.33-7.55-4.85-11.24-7.37-1.66-1.13-3.31-2.27-4.99-3.39l-3.42-2.68c-3.98-3.1-8.09-6.31-11.75-9.97-10.28-9.7-17.87-20.32-22.51-31.5-4.7-11.14-7.16-23.98-7.3-38.14.06-25.93,5.63-51.38,11.82-77.34,2.9-12.47,6.71-25.48,14.82-36.04,7.38-10.41,18.87-17.72,32.3-20.49,4.93-1.04,10.24-1.57,15.76-1.57,7.19,0,14.97.9,23.14,2.66,12.33,2.7,24.42,6.71,36,11.89,4.73-9.88,10.07-18.98,15.88-27.05,7.1-9.91,14.83-17.63,22.97-22.94,7.88-5.22,16.68-7.99,25.43-7.99,1.87,0,3.75.13,5.63.39,9.22.99,18.91,5.19,29.52,12.82,7.65,5.64,15.19,12.77,23.75,22.48,4.45,4.76,7.76,8.61,10.66,12.42l2.68,3.33c2.47,3.05,5.02,6.21,7.27,9.62,13.24,18.38,23.3,37.81,29.8,57.65,3.77,10.56,5.9,21.45,7.63,31.63Zm-30.23,177.81c-5.59-11-11.46-21.7-16.79-31.37-11.77-20.98-24.24-42.03-36.31-62.38l-9.43-15.91c-16.65-27.61-31.63-52.56-46.08-78.03-7.04-12.45-14.15-25.46-21.72-39.78l-.21-.41c.07.13.13.27.2.4,7.78,14.98,14.81,28.04,21.49,39.91,16.04,28.73,32.81,56.97,45.61,78.36l7.23,11.99c12.97,21.52,26.39,43.78,38.98,65.99,5.35,9.45,11.33,20.16,17.03,31.23Zm-796.6-599.71c-2.09-21.55-1.02-42.51,3.18-62.42,3.95-20.08,11.14-39.82,21.35-58.65,5.17-9.79,11.37-18.85,16.76-26.43l11.98-15.61,5.93-6.27c15.46-16.33,31.45-33.23,49.93-47.01,11.16-8.82,23.94-16.78,37.9-23.59,14.56-7.08,28.92-11.41,42.68-12.88,4.07-.49,8.23-.74,12.34-.74,11.03,0,21.71,1.77,31.77,5.26,13.79,4.68,26.77,12.84,37.51,23.59,9.94,9.81,18.6,22.07,25.74,36.43,5.55,11.26,10.38,23.82,15.15,39.23,12.57-14.65,23.87-25.58,35.4-34.22,16.22-12.04,32.21-18.15,47.57-18.15h.95c15.44,0,31.6,7.2,45.52,20.3,12.17,11.29,21.63,26.34,27.33,43.52,10.16,29.93,10.22,65.35.18,102.41-4.17,15.55-10.43,31.84-18.62,48.42-3.88,7.69-8.17,15.58-13.12,24.17-17.48,25.25-37.64,46.41-60.05,63.11-11.55,8.72-24.19,16.88-37.57,24.23-13.76,7.32-27.49,13.49-40.85,18.35-5.51,1.98-11.14,3.81-16.83,5.65-8.42,2.72-17.13,5.54-25.52,8.94-15.08,5.99-28.16,12.61-39.99,20.24-14.15,9.22-25.13,18.83-33.54,29.38-4.68,5.8-8.49,12.24-11.33,19.16-.53,1.34-1.01,2.85-1.44,4.31l-4.82-.6c.09.72.14,1.48.24,2.19l-5.92,2.1c-2.22-3.71-4.97-7.26-8.37-10.87-6.01-6.45-13.16-12.88-21.9-19.68-8.17-6.31-16.13-11.76-24.3-16.65-2.68-1.6-5.43-3.09-8.12-4.55-1.59-.87-3.17-1.73-4.7-2.59-4.91-2.79-8.86-5.27-12.46-7.81-16.69-11.35-30.49-25.31-40.98-41.46-5.4-8.32-9.85-17.11-13.27-26.14-3.5-9.39-6.16-19.01-8.31-27.19l-.44-1.66,1.14-1.29c26.36-29.67,58.28-56.26,94.84-79.03,18.26-11.32,36.65-21.39,54.65-29.93l6.98-3.33c2.01-.9,4.92-2.42,6.73-3.89,4.21-3.23,7.88-6.8,11.28-10.96,3.51-4.51,6.31-8.43,7.35-13.9.42-2.29.05-5.49-1.72-7.44-2.06-2.39-4.66-3.44-6.94-4.17-4.38-1.26-8.57-1.44-12.09-1.44-1.16,0-2.32.02-3.47.05-5.29.06-10.52.82-15.58,1.57-9.4,1.61-19.27,4.23-30.07,8-19.55,6.85-38.24,16.33-55.55,28.16-18.91,13.03-33.79,27.62-44.21,43.37-5.9,8.9-10.18,18.4-12.72,28.22-1.09,4.42-1.76,9.15-2.03,14.43l-6.28.73-1.92-6.6-1.77-7.68c-.42-2.02-.89-3.94-1.37-5.86-.77-3.08-1.57-6.27-2.02-9.55l-2.18-15.32Zm359.58-77.13c-5.77-3.57-13.45-7.84-22.09-9.74-.79.66-1.34,1.4-1.51,1.89-.29.71-.19,1.51.26,2.84,1.27,3.22,4.55,6.68,6.9,8.98,2.47,2.42,5.24,4.58,8.17,6.86l2.41,1.89c3.66,2.97,7.15,6.03,10.59,9.04l5.71,5.06c5.45,4.86,10.85,9.67,16.41,14.29,3.52,3.02,7.52,6.26,10.76,8.8,1.98,1.23,4.77,2.34,6.91,2.79-.16-.69-.41-1.51-.74-2.46-1.48-3.95-3.85-8.11-5.97-11.7-4.17-7.21-9.47-13.99-16.71-21.37-7.11-7.11-14.02-12.73-21.09-17.16Zm-66.55-32.61l-32.32,57.63c-15.59,27.64-33.68,60.47-49.73,94.52-17.66,38.11-29.48,69.87-37.18,99.92-3.49,13.79-5.98,26.68-7.56,39.09,1.68-12.54,4.26-25.41,7.83-39.03,7.83-30.02,19.8-61.71,37.65-99.7,15.71-33.64,33.7-66.73,49.22-94.66l26.05-46.63c1.97-3.57,4-7.29,6.05-11.14Zm-113.93,131.7c.53-1.71.59-2.94.51-3.35-1.1-.46-2.55-.84-5.16-.84-1.6,0-3.29.14-4.9.34-3.51.44-7.34,1.3-11.72,2.65-16.13,6.14-31.8,14.19-45.12,23.19-15.28,9.98-27.67,21.41-36.86,33.99-5.01,6.84-9.08,14.1-12.12,21.57-2.92,7.48-5.15,15.36-6.61,23.37,1.23,2.67,2.21,3.33,2.6,3.48.45.21,1.02.38,2.05.38,1.08,0,2.4-.17,4.17-.54,5.86-1.72,11.91-5.29,17.02-8.55,11.97-7.8,23.11-17.38,32.42-25.72,10.34-9.08,20.57-18.84,30.43-29.02,5.69-5.92,10.2-10.8,14.19-15.34,4.73-5.46,9.43-10.78,14.59-15.61l.32-.3.71-1.5c1.39-2.91,2.71-5.65,3.48-8.21Zm825.16,203.18c-.95-1.97-1.93-3.85-2.93-5.68l-3.29,2.97c-5.13-4.29-11.73-8.14-20.18-11.77-11.84-4.82-24.96-8.25-38.92-10.16-11-1.48-22.36-2.23-33.77-2.23-15.33,0-31.09,1.35-46.85,4.02-13.41,2.31-26.61,5.57-39.23,9.69-8.45,2.73-16.74,6.1-24.77,9.35-4.34,1.76-8.66,3.51-12.99,5.16-29.72,11.05-54.67,16.59-78.56,17.46-3.07.14-6.17.21-9.27.21-20.42,0-42.91-2.96-70.77-9.33-13.16-2.91-26.41-6.36-39.21-9.71l-19.52-5.27-19.08-6.2c-25.36-9.9-47.8-26.04-65.09-46.72-15.59-19.43-27.32-42.49-33.98-66.75l-.09-.36-.02-.37c-.06-1.73-.13-3.36-.24-4.93-.13-3.47-.33-6.74-.64-9.95-.15-7.55-.17-14.12.93-20.66,1.91-14.36,8.24-27.1,17.81-35.77,9.04-8.36,21.43-13.88,36.79-16.37,5.9-.93,12.28-1.4,19.01-1.4h1.42c2.08.05,4.13.11,6.19.17,3.3.1,6.62.21,9.95.21.72,0,1.45-.02,2.17-.03-6.88-20.16-10.35-38.05-10.53-54.63-.29-21.07,6.2-40.11,18.27-53.6,11.32-12.93,27.97-22.39,49.47-28.09,17.09-4.54,35.07-5.82,52.45-7.06,0,0,18.92-1.39,25.93-1.92,29.18-2.21,59.35-4.5,88.97-4.5l5.69.03c16.17.27,37.23,1.52,57.01,8.85,17.38,6.55,31.92,17.73,43.85,27.81,23.3,27.48,40.65,51.03,54.99,74.46,12.52,19.91,23.63,41.1,34.38,61.59,3.55,6.78,7.11,13.57,10.73,20.33l4.13,7.81c13.13,24.8,26.71,50.45,30.03,78.69,1.71,12.31,1.97,24.41,2.24,37.23.07,3.14.14,6.3.23,9.48.7,13.35,1.8,25.17,3.36,36.06l-6.06,1.84Zm-75.97-66.6c-5.67-3.41-11.34-6.82-16.96-10.3-17.03-10.39-35.41-22.05-56.18-35.64-18.87-12.34-38.29-23.55-57.72-33.3-38.53-19.29-80.5-34.83-124.73-46.19-26.07-6.51-50.65-11.29-74.19-14.51,2.97.43,5.95.83,8.91,1.3,21.8,3.45,43.74,8.01,65.2,13.53,44.08,11.45,85.96,27.13,124.48,46.61,20.45,10.26,39.86,21.36,57.71,33.01,22.4,14.47,39.79,25.4,56.4,35.41,5.63,3.44,11.27,6.79,16.91,10.14,9.01,5.35,18.13,10.93,27.1,16.69-8.96-5.8-18.01-11.41-26.93-16.77Zm-439.07,611.31l-4.06-4.67-1.48,6.01c-.99,4.04-2.64,7.83-4.23,11.38l-6.23,13.77-12.06,27.64-12.13,27.67-5.91,13.87c-.63,1.49-1.3,2.98-2.17,4.86l-1.3,4.27c-1.43,4.65-2.84,9.27-4.22,13.88-7.61,25.23-13.98,47.4-19.45,67.75-2.6,9.58-4.93,18.51-7.08,27.13,2.28-9.58,4.67-18.99,6.79-27.2,5.29-20.15,11.31-41.72,18.95-67.88,6.43-21.45,13.26-43.48,20.89-67.32l10.96-33.53c3.02-9.07,6.72-19.72,11.35-29.89l.72-1.59-.94-1.47c-5.72-8.92-10.2-18.52-13.3-28.53l-3.12-10.04-3.02,10.07c-1.52,5.04-3.38,10.61-5.71,17.02l-9.49,26.23c-5.86,16.17-11.93,33.41-18.54,52.67-6.76,19.03-12.59,36.33-17.81,52.9-2.77,8.88-5.47,17.82-7.97,26.76l-.76,2.69c-1.59,5.69-3.27,11.56-5.17,17.29.81-9.73,1.56-19.61,2.22-29.69l6.17,1.07c1.72-6.07,3.45-12.14,5.3-18.15l.2-.67.38-1.64c1.44-26.07,5.09-51.72,8.69-75.76,4.34-28.57,9.22-57.4,13.85-84.47,9.71-57.14,20.21-114.57,30.13-168.47l32.25-168.07,16.54-84.02c5.42-27.42,10.84-54.28,17.53-81.1h9.74l-10.61-6c-5-2.82-10.06-6.09-15.48-10.01l-3.9-2.81-1.98,8.44c-3.44,21.9-7.78,42.81-13.11,67.88l-14.18,67.8-27.64,135.71c-9.99,49.33-18.68,93.81-26.56,135.99-4.67,24.22-8.85,48.89-12.9,72.75-3.01,17.73-6.01,35.46-9.29,53.73-.14,23.28-.43,43.71-.9,62.49-.34,23.97-1.46,47.83-2.75,69.83,1.16-22.3,2.03-45.45,2.55-69.91,1.59-72.48.73-147.35-2.62-228.88-2.99-78.8-7.24-155.73-12.65-228.67-2.76-38.01-5.8-76.41-9.05-114.15-3.14-35.13-6.44-72.52-9.16-109.61l-.41-5.46-4.57,3.03c-4.06,2.69-8.33,5.2-12.74,7.8l-1.83,1.08.29,2.11c5.09,37.88,8.2,75.31,10.81,110.13,2.88,37.55,5.4,75.64,7.51,113.19,4.52,78.19,7.21,154.44,8.01,226.65.54,28.92.21,58.34-.11,86.79-.1,8.88-.2,17.76-.28,26.55-.27,7.78-.5,15.55-.74,23.32-.92,29.52-1.88,60.05-4.06,90.04l-1.73,28.32c-.45,6.53-1.11,13.06-1.77,19.59l-.86,8.61-2.72,28.53c-.87,9.14-1.77,18.58-3.3,27.81-2.45,17.07-5.34,36.9-8.54,55.93-3.28,14.4-6.96,30.51-10.83,46.33-1.92-11.64-3.64-23.4-5.26-34.84-1.53-10.82-3.06-21.64-4.8-32.4l-2.77-19.13-3.27-19.02c-.82-4.45-1.57-8.91-2.33-13.38-1.38-8.1-2.8-16.48-4.54-24.61-9.41-49.4-21.63-99.88-36.3-150.04-14.51-50.05-31.42-99.15-50.27-145.99l-14.98-35.61c-1.89-4.15-3.73-8.32-5.57-12.48-3.3-7.46-6.71-15.19-10.34-22.62-5.71-12.29-11.67-24.47-17.63-36.65-4.74-9.69-9.49-19.39-14.12-29.17l-1.95-4.11-3.22,3.21c-5.55,5.55-11.52,10.61-17.74,15.05l-2.38,1.7,1.46,2.52c11.62,20.02,22.55,41.36,32.51,63.48,9.16,19.77,18.53,41.6,29.49,68.72,18.18,45.79,34.46,93.35,48.39,141.36,13.59,47.57,25.09,96.52,34.18,145.53,1.74,8.56,3.2,17.35,4.62,25.85.6,3.65,4.91,29.29,4.91,29.29l3.35,24.36c1.4,10.23,2.84,20.81,3.81,31.21.86,9.99,1.82,21.79,2.49,33.52l.17,2.98,2.99.04c8.92.13,17.86.19,26.79.19h4.23c11.77,0,23.98-.16,37.23-.49v.04s10.02-.3,10.02-.3c3.93-.11,7.85-.22,11.74-.38l-.02.07,4.47-.22c7.08-.35,14.11-.76,21.18-1.17l4.9-.28.18-2.84c.52-8.47,1.95-17.46,4.41-27.49,2.24-9.66,4.72-19.64,7.61-30.49,4.91-18.46,10.6-38.22,17.4-60.4,6.32-19.93,13.11-39.95,20.16-59.52,3.58-9.85,7.22-19.64,11.06-29.43,4.11-10.58,7.73-18.49,11.74-25.63l1.23-2.21-1.86-1.72c-4.14-3.82-8.11-7.92-11.81-12.19Z"/>
  <g class="cls-1">
    <path class="cls-5" d="m1616.24,383.06c.08-.18.06-.39.08-.58,3.08-3.07,5.91-6.43,7.82-10.76.97-2.22,1.83-4.8,1.42-7.94-.35-3.24-3.15-6.3-5.8-7.26-5.33-2.11-10.09-1.62-14.71-1.2-4.62.56-9.04,1.53-13.47,2.86-8.77,3.15-16.65,6.64-24.73,10.63-8.02,3.9-15.8,8.35-23.28,13.28-14.86,9.96-28.53,22.14-39.07,36.89-5.29,7.33-9.73,15.32-13.04,23.8-3.3,8.46-5.52,17.52-4.26,26.9.04.3.2.56.38.8-.08,3.54.82,7.9,4.71,10.56,4.14,2.66,8.8,2.14,12.53,1.3,7.52-2.06,13.91-5.68,20.08-9.49,12.26-7.76,23.35-16.84,34.13-26.22,10.63-9.56,20.79-19.57,30.6-29.93,4.9-5.18,9.69-10.47,14.36-15.88,4.69-5.38,9.19-11.04,12.25-17.73Zm-31.48,28.96c-9.81,10.11-20.01,19.86-30.54,29.17-10.46,9.38-21.27,18.45-32.89,26.03-5.79,3.72-11.89,7.18-18.06,8.94-3.06.7-6.03.99-8.1.03-2.03-.8-3.56-3.26-4.77-6.26.02-.07.1-.1.11-.18l.04-.21c1.47-8.24,3.83-16.51,6.91-24.39,3.18-7.89,7.42-15.35,12.48-22.23,10.09-13.83,23.22-25.34,37.64-34.79,14.23-9.58,30.14-17.54,45.98-23.58,3.97-1.25,8.17-2.22,12.28-2.76,4.04-.52,8.42-.65,11.33.55,1.46.64,1.9,1.31,2.25,2.45.23,1.24,0,3.09-.61,4.94-1.08,3.63-3.02,7.38-4.83,11.2-.15.07-.33.05-.46.17l-.03.03c-5.17,4.86-9.77,10.09-14.38,15.41-4.66,5.26-9.45,10.42-14.35,15.48Zm243.16-83.93c2.42,1.59,4.73,2.64,7.27,3.57,2.56.85,5.2,1.63,8.63,1.33,1.66-.16,3.85-.81,5.47-2.59,1.58-1.76,2.08-3.98,2.08-5.59.06-3.38-.84-5.91-1.74-8.38-1.89-4.87-4.35-9.15-6.9-13.36-4.92-8.41-11.48-16.31-18.4-23.09-6.99-6.88-14.58-13.19-23.05-18.39-8.15-4.95-17.86-8.96-27.83-7.89-.38-.23-.83-.33-1.3-.21-2.8.73-5.34,2.24-7.04,5.01-1.69,2.75-1.83,6.32-.94,9.07,1.79,5.56,5.28,9.52,8.85,13.03,3.51,3.52,7.65,6.65,11.21,9.51,3.64,2.97,7.19,6.14,10.74,9.34,7.09,6.42,14.2,12.95,21.53,19.24,3.78,3.21,7.14,6.1,11.42,9.41Zm-39.54-43.14c-3.95-3.11-7.52-5.74-10.84-8.99-3.23-3.16-6.28-6.65-7.7-10.21-.55-1.78-.91-3.39-.26-4.92.55-1.5,2.04-3.13,3.68-4.16l.15-.09c8.86,1.64,16.86,5.67,24.54,10.42,7.86,4.92,15.08,11.04,21.7,17.67,6.68,6.75,12.45,13.77,17.17,21.99,2.39,4.01,4.66,8.13,6.19,12.24.76,2.01,1.31,4.18,1.22,5.62,0,.79-.24,1.02-.25,1.05,0,0-.24.2-.94.27-2.95.22-7.91-1.62-11.14-3.68-3.32-2.54-7.31-5.84-10.86-8.82-7.29-6.14-14.39-12.53-21.58-18.93-3.61-3.19-7.26-6.38-11.08-9.45Zm658.37,248.93c-.32-15.33-.08-31.31-2.15-47.02-1.97-15.78-6.62-31.35-13.1-45.73-6.36-14.47-13.7-28.29-20.93-42.13-14.79-27.41-28.81-55.44-45.7-81.93-8.34-13.28-17.17-26.26-26.66-38.79-9.36-12.27-19.2-24.23-31.26-34.23-11.73-12.86-26.1-23.85-42.75-30.33-18.72-6.99-38.61-8.91-58.04-9.36-38.99-.56-77.55,2.89-116.11,5.48-19.13,1.43-38.91,2.6-58.03,7.74-18.93,5.15-37.83,14.09-51.22,29.51-13.57,15.31-19.19,36.17-18.83,55.91.3,18.58,4.72,36.79,12.72,53.34-5.6-1.66-11.35-2.25-17.13-2.36-7-.18-14.04.15-21.03,1.18-13.88,2.04-28.06,6.96-38.99,16.88-10.81,10.02-16.88,24.26-18.53,38.3-1.06,7.05-.92,14.13-.63,21.13.32,3.48.75,6.96,1.38,10.39.71,2.97,1.61,5.89,2.69,8.76,4.96,23.85,16.28,46.13,31.5,65.18,12.83,15.54,28.64,28.59,46.23,38.44-.01.03-.05.04-.06.08-6.96,27.7-12.61,55.67-18.15,83.65l-16.52,83.98-32.27,168.11c-10.34,56.11-20.58,112.26-30.16,168.52-4.81,28.13-9.53,56.28-13.82,84.51-3.83,25.2-7.32,50.52-8.72,76.07-.16.51-.33,1.02-.48,1.53-1.83,6.06-3.59,12.15-5.3,18.25,2.09-31.79,3.88-63.61,4.37-95.45.52-20.84.78-41.68.88-62.53,7.6-41.92,14.03-84.01,22.1-125.88,8.48-45.38,17.39-90.69,26.56-135.94l27.64-135.76,14.22-67.8c4.81-22.58,9.52-45.19,13.09-68.04.14-.83-.38-1.65-1.2-1.88-.9-.25-1.82.27-2.08,1.16-6.29,22.27-11.27,44.83-16.14,67.41l-14.48,67.77-28.14,135.71c-8.98,45.32-17.7,90.7-26,136.16-4.1,22.74-8.1,45.51-11.84,68.32-1.47,8.4-2.61,16.86-3.78,25.32-.21-44.42-1.15-88.83-2.86-133.21-2.97-76.33-7.33-152.59-13.11-228.74-2.86-38.08-5.96-76.14-9.36-114.17-3.36-37.22-6.96-74.42-12.26-111.45,4.7-3.19,9.4-6.37,13.91-9.82,12.03-9.17,23.3-19.33,33.6-30.44,6.24-6.74,12.03-13.99,17.07-21.72,19.6-25.14,33.43-54.69,42.26-85.43,9.34-33.73,11.63-70.56.33-104.63-5.63-16.87-15.29-32.8-28.55-44.92-6.63-6.04-13.99-11.43-22.29-15.26-8.27-3.84-17.45-5.94-26.63-5.85-18.56.1-35.6,8.51-49.67,19.09-13.06,9.85-24.23,21.83-33.07,35.46-2.04-13.71-6.54-26.87-12.56-39.32-6.74-13.66-15.32-26.59-26.21-37.51-10.83-10.93-24.16-19.59-38.8-24.68-14.6-5.18-30.45-6.74-45.79-4.95-15.39,1.76-30.14,6.79-43.8,13.51-13.65,6.78-26.64,14.85-38.48,24.3-11.9,9.36-23.19,19.46-33.59,30.39-6.28,6.4-12.16,13.16-17.67,20.21-14.07,12.95-24.78,29.16-34.23,45.71-10.3,18.57-18,38.66-22.28,59.54-4.16,20.9-4.86,42.4-2.63,63.52l2.42,15.74c.74,5.26,2.4,10.33,3.56,15.49l1.96,7.7c.74,2.54,1.82,4.98,2.73,7.46,2.04,4.9,4.04,9.8,6.48,14.49.06.13.2.19.3.29.07.08.13.15.21.21.11.06.22.08.34.11.15.05.28.15.44.14.73-.04,1.29-.67,1.25-1.4-1.14-20.53,5.35-40.38,16.65-57.13,11.27-16.84,26.71-30.79,43.56-42.31,16.94-11.47,35.46-20.72,54.79-27.43,9.67-3.33,19.56-6.01,29.56-7.68,5-.72,10.03-1.4,15.01-1.45,4.95-.11,10.07.04,14.32,1.28,2.11.61,3.93,1.58,4.9,2.72,1,1.09,1.21,2.54.97,4.46-.68,3.91-3.43,8.21-6.45,11.96-3.08,3.79-6.69,7.34-10.51,10.3-2.03,1.59-3.49,2.34-6.07,3.55l-7.04,3.44c-18.87,8.99-37.14,19.24-54.85,30.35-17.71,11.13-34.78,23.32-50.82,36.81-15.94,13.57-31.27,28.1-42.97,45.85-.17.25-.18.55-.2.84-.02.08-.1.13-.1.22-.44,10.29,2.13,20.13,5.61,29.53,3.47,9.42,7.98,18.46,13.36,26.93,10.79,16.93,25.11,31.65,41.74,42.85,4.16,2.8,8.44,5.4,12.8,7.84,4.48,2.44,8.76,4.55,12.87,6.97,8.31,4.88,16.36,10.32,24.07,16.16,7.69,5.86,15.07,12.14,21.66,19.07,6.51,6.97,12.78,14.15,16.59,22.77l.03.05c.05.11.16.18.24.27.06.08.09.17.17.24.15.12.32.16.52.21.09.02.15.1.25.1.02,0,.04-.03.06-.03.05,0,.08.04.13.04.18-.02.29-.16.43-.23.14-.07.27-.09.38-.2.11-.12.14-.27.2-.42.06-.14.19-.25.2-.42v-.03c.38-7.21,2.47-14.15,5.6-20.58,2.96-6.52,7.06-12.52,11.57-18.17,9.12-11.28,20.64-20.61,32.98-28.5,12.38-7.9,25.74-14.27,39.48-19.64,13.69-5.43,28.06-9.16,42.4-14.32,14.18-5.26,27.92-11.64,41.26-18.77,1.5-.84,2.93-1.81,4.42-2.67,2.3,36.27,5.08,72.5,7.77,108.73,2.76,37.68,5.18,75.39,7.21,113.11,4.19,75.44,6.84,150.97,7.52,226.51.79,37.77.15,75.54-.07,113.3-1.18,37.74-1.85,75.51-4.52,113.16-2.83,47.03-7.17,93.95-13.68,140.57-.14-.02-.28-.04-.42-.05l-3.25-.23c-2.17-.19-4.34-.18-6.52-.26l-6.52.26-3.26.14c-.2,0-.41.02-.62.04l-1.7-11.96-3.2-19.08c-2.27-12.69-4.07-25.47-6.74-38.1-9.46-50.71-21.48-100.96-35.81-150.54-14.49-49.53-31.43-98.35-50.86-146.17l-15.11-35.64c-5.4-11.72-10.42-23.61-16.13-35.19-10.49-22.47-22.07-44.44-34.87-65.69,11.18-11.73,20.38-25.37,26.97-40.28,5.27-12.02,6.84-26.58,1.86-39.36-4.83-12.79-14.48-22.68-24.88-30.33-20.84-14.87-44.92-23.51-69.52-28.18.79-12.1-.08-24.16-2.34-36.11-2.59-12.31-6.6-24.67-14.03-35.39-7.08-10.81-18.47-19.41-31.34-22.4-12.85-3.37-26.09-1.5-38.3,1.72-12.28,3.34-23.89,8.46-34.9,14.43l-32.58,17.7c-21.73,11.68-43.98,22.13-66.44,32.61-11.11,5.44-22.65,10.49-32.92,18.59-10.44,8.08-17.33,19.89-21.9,31.55-4.77,11.75-8.07,23.72-11.45,35.68-3.24,12.01-6.21,24.08-8.76,36.23-5.17,24.29-9.25,48.78-12.55,73.35-3.19,24.58-5.73,49.26-5.86,74.11,0,.09.07.15.09.24.01.08.03.15.06.22.04.1.06.19.13.27.07.1.15.17.24.24.05.04.05.11.1.15.05.03.11,0,.16.03.04.02.06.07.1.08.04.02.08-.02.11,0,.06.02.1.08.17.09.07.01.13-.05.2-.06.16,0,.28-.01.43-.07.08-.03.13-.07.2-.11.09-.06.15-.1.22-.18.07-.07.18-.08.24-.16,13.69-20.98,34.57-36.05,58.25-42.91,11.79-3.53,24.14-5.27,36.49-5.45,12.24-.23,24.89,1.66,37.57,2.2,50.52,2.99,101.93,2.66,151.83-9.16,24.05-5.94,47.68-15.12,68.42-29.26,9.73,21.6,20.15,42.81,29.82,64.39,10.38,22.59,19.9,45.56,29.17,68.62,18.18,46.28,34.07,93.44,47.75,141.23,13.89,47.73,25.43,96.16,34.71,145.01,2.56,12.17,4.43,24.46,6.58,36.71l3.14,18.39,1.27,8.83c-.78-.11-1.55-.16-2.33-.15l-5.99.05c-4-.01-7.99.19-11.98.3l-11.96.78-5.98.4c-1.32.07-2.65.22-3.95.73-4.43-24.4-9.43-48.67-14.92-72.84-5.85-24.99-12.16-49.88-18.85-74.65l-10.32-37.08c-3.3-11.28-6.79-22.51-11.32-33.41,2.68-4.2,5.2-8.51,7.42-13.01,7.68-15.55,12.19-33.15,10.89-50.79-1.2-17.56-8.16-34.83-20.14-47.9-5.94-6.55-13.28-11.91-21.52-15.38-7.56-3.02-16.31-4.21-24.2-1.77-.11-8.96-5.49-17.21-12.08-22.68-7.2-6.02-15.85-9.84-24.78-11.94-17.92-4.21-37.03-1.71-53.54,5.99-16.61,7.67-30.5,20.2-41.2,34.64-10.76,14.48-18.62,30.79-24.56,47.58-11.74,33.09-20.9,68.39-19.02,104.25.77,17.83,3.94,35.6,9.51,52.53,5.23,16.47,10.38,32.95,16.65,49.13-.09.69.17,1.41.83,1.74.83.42,1.84.08,2.26-.74,7.62-14.73,21.09-24.61,35.95-31.86,14.9-7.32,30.98-12.6,46.87-18.58,15.91-5.92,31.81-12.43,46.81-20.93,15.03-8.41,28.82-19.31,40.78-31.58,1.61-1.65,3.14-3.39,4.7-5.09,1.79,9.79,4.22,19.39,6.59,29.01,2.86,11.39,5.51,22.83,8.09,34.28,5.13,22.92,9.67,45.96,13.79,69.08,4.01,21.59,7.52,43.28,10.66,65.01-4.47-.33-8.89-.07-13.3.37l-17.54,1.86c-11.68,1.39-23.34,3.01-34.96,5.06-11.59,2.24-23.14,4.84-34.51,8.49-5.67,1.86-11.32,3.94-16.79,6.79-2.72,1.42-5.45,3.08-7.81,5.45-2.3,2.19-4.46,5.78-3.87,9.58-2.81,19.97-3.65,40.06-4.05,60.14-.39,20.1-.31,40.21.24,60.31,1.09,40.2,4.04,80.4,9.94,120.27,6.31,39.74,15.12,79.46,30.97,116.84,7.93,18.63,17.6,36.72,30.36,52.76,12.42,15.44,28.4,28.85,47.2,35.59-1.04,1.82-1.19,3.65-1.2,5.47l-.14,6.1-.26,12.21c.07,4.07.04,8.14.23,12.2l.21,6.1c.06,2.04.31,4.07,1.86,6.1.03.04.08.08.13.13.01.3.09.61.31.86,8.61,9.39,20.38,14.47,31.81,18.72,11.59,4.11,23.48,7.15,35.48,9.49,24.01,4.6,48.48,6.65,72.87,6.34,24.36-.47,48.74-2.57,72.73-7.43,11.98-2.47,23.89-5.62,35.38-10.36,5.74-2.37,11.36-5.25,16.45-9.24,2.54-1.98,4.86-4.35,6.72-7.21,1.05-1.61,1.84-3.47,2.3-5.42h0c1.55-1.92,1.8-3.84,1.86-5.76l.21-5.76c.19-3.83.16-7.67.23-11.51l-.26-11.51-.14-5.76c0-1.42-.08-2.84-.7-4.27,17.59-8.97,31.58-23.91,42.51-40.06,11.42-16.86,19.89-35.39,27.03-54.22,14.23-37.8,22.59-77.34,28.75-116.98,5.82-39.73,9.07-79.75,10.72-119.79.83-20.03,1.21-40.06,1.21-60.1-.03-20.04-.44-40.08-2.78-60.06-.11-.82-.81-1.48-1.66-1.49-.2,0-.34.15-.52.21-.68-1.03-1.43-1.99-2.23-2.75-2.51-2.41-5.34-4.2-8.24-5.64-5.81-2.91-11.79-5.03-17.8-6.93-12.05-3.72-24.28-6.35-36.54-8.65-12.3-2.11-24.64-3.72-37-5.11l-18.56-1.86c-4.84-.47-9.69-.8-14.59-.49,4.26-14.73,8.67-29.43,13.32-44.05,6.21-19.96,12.68-39.85,19.63-59.57,3.49-9.85,7.06-19.67,10.78-29.43,3.23-8.42,6.4-16.84,9.06-25.49,8.44,7.43,17.49,14.12,26.98,20.02,17.02,9.96,33.78,19.03,49.68,29.99,15.83,10.84,31.04,22.8,43.55,37.11,12.44,14.18,22.49,30.96,24.06,50.03.01.15.13.26.18.39.04.09.06.18.12.26.11.16.27.26.44.36.07.04.11.13.19.15.04.02.08-.02.12,0,.07.01.11.08.18.08.14.01.24-.09.37-.13.17-.03.31-.06.45-.15.13-.09.19-.2.28-.32.08-.11.22-.18.27-.32,6.15-17.7,19.45-31.18,31.44-46.07,5.99-7.46,11.79-15.33,16.34-24.06,4.66-8.7,7.44-18.35,9.54-27.64,8.16-37.58,9.74-76.6,2.93-114.66-3.58-18.94-9.68-37.69-19.76-54.47-9.96-16.76-24.53-31.26-42.23-39.89-17.11-8.74-37.24-14.54-57.13-10.43-9.91,1.91-19.03,7.01-26.44,13.59-6.51,5.93-11.62,13.08-15.2,21.05-4.13-7.83-9.44-14.98-16.33-20.91-1.15-.94-2.34-1.83-3.57-2.69,1.81-2.52,3.03-5.24,4.14-8.03l4.28-10.72,8.38-21.5,7.93-21.68,3.96-10.84c.81-2.17,1.55-4.36,2.05-6.65,3.9,2.64,7.8,5.28,11.77,7.61,11.14,6.94,22.51,13.56,34.05,19.92,23.1,12.64,48.02,22.78,73.87,28.4,25.67,5.92,51.91,9.19,77.21,14.14,12.41,2.84,24.47,7.42,35.02,14.53,10.64,6.79,20.16,15.97,26.56,26.86l.08.15c.04.07.13.08.18.15.03.02.05.03.07.05.37.38.9.56,1.41.34.13-.06.16-.19.26-.28.06-.04.09-.09.14-.14.16-.18.26-.36.3-.6.02-.07.09-.11.09-.19,1.46-21.89.66-43.68.93-65.39.17-21.71,1.28-43.39,4.23-64.8,3.29-21.27,7.31-43.24,7.33-65.35.32-11.06-.63-22.15-1.98-33.15-1.81-10.94-4-21.89-7.66-32.39-6.97-21.11-17.67-40.84-30.65-58.69-3.06-4.62-6.69-8.78-10.13-13.09-3.38-4.38-7.06-8.47-10.83-12.49-7.27-8.2-15.21-16.17-24.32-22.79-9.1-6.49-19.54-12.11-31.24-13.4-11.64-1.6-23.72,1.88-33.22,8.25-9.64,6.33-17.22,14.97-23.43,24.21-5.8,8.79-10.45,18.16-13.82,28.09-11.03-6.24-22.78-10.99-35.13-14.09-12.95-3.1-26.73-4.48-40.24-1.64-13.45,2.68-26.31,10.4-34.36,21.68-8.49,10.95-12.51,24.52-15.48,37.18-6.15,25.47-12,51.36-12.17,78.22.06,13.37,2.16,27.06,7.45,39.66,4.95,11.97,12.81,22.5,21.92,31.42-1.88,2.8-3.23,5.84-4.51,8.9l-5.1,11.97-10.19,23.96-9.68,24.17-4.84,12.08c-1.38,3.42-2.56,6.93-3.04,10.72-9.48,3.01-16.85,9.71-22.73,16.76-6.48,7.83-11.29,16.82-14.73,26.22-6.92,18.83-8.31,39.57-4.31,59.17.24,1.19.56,2.36.83,3.54-3.81,7.41-6.85,15.1-9.71,22.87l-9.75,26.17c-6.46,17.47-12.86,34.96-19.04,52.55-3.44,10.11-6.8,20.25-10.08,30.42,6.95-46.09,14.3-92.19,22.4-138.17,9.77-56.19,20.19-112.27,30.72-168.33l31.77-168.16,16.26-84.01c5.42-27.68,10.74-55.39,14.95-83.31,5.47,2.91,11.08,5.56,16.85,7.83l19.55,6.44,19.54,5.32c13.06,3.46,26.13,6.92,39.35,9.91,26.35,6.08,53.56,10.64,81.06,9.42,27.52-1.1,54.27-8.44,79.67-17.97,12.77-4.92,24.97-10.46,37.58-14.56,12.64-4.18,25.59-7.42,38.72-9.75,26.24-4.52,53.21-5.54,79.58-2.03,13.13,1.89,26.22,4.53,38.54,9.29,12.22,4.56,24.43,10.89,31.92,21.58l.05.07c.13.17.32.24.49.33.05.03.08.07.14.09.29.11.59.11.9,0h.01c.06-.02.12,0,.18-.02.11-.06.14-.19.23-.28.06-.05.08-.11.14-.17.04-.06.1-.1.14-.17.01-.03.04-.04.06-.07.05-.11.04-.22.05-.34.02-.08.09-.13.09-.22.31-15.65-.78-31.22-1.36-46.7Zm-878.59,14.33c-7.86-6.08-16.04-11.71-24.59-16.84-4.31-2.6-8.82-4.88-12.92-7.18-4.17-2.39-8.24-4.93-12.19-7.65-15.83-10.8-29.69-24.49-40.1-40.58-5.21-8.03-9.59-16.6-12.98-25.55-3.25-8.78-5.86-17.83-8.18-26.89,27.07-30.51,59.28-56.76,94.14-78.39,17.53-10.9,35.63-20.95,54.32-29.77l6.98-3.37c2.14-.95,5.32-2.6,7.35-4.29,4.41-3.39,8.26-7.17,11.77-11.42,3.38-4.32,6.75-8.9,8.02-15.29.55-3.14.05-7.36-2.5-10.21-2.44-2.84-5.53-4.17-8.34-5.05-5.77-1.68-11.2-1.69-16.6-1.57-5.41.09-10.71.83-15.98,1.62-10.49,1.81-20.72,4.64-30.68,8.13-19.91,7.03-38.85,16.6-56.27,28.52-17.32,11.98-33.28,26.47-45.1,44.3-5.92,8.88-10.45,18.77-13.15,29.17-1.2,4.94-1.9,10-2.11,15.06l-1.92-6.59-1.74-7.55c-1.07-5.04-2.66-9.99-3.32-15.11l-2.21-15.3c-1.96-20.51-1.08-41.24,3.11-61.36,4-20.15,11.23-39.64,21.08-57.73,4.79-9.13,10.57-17.7,16.53-26.12,3.94-5.19,7.95-10.33,11.94-15.51,17.65-18.55,34.77-37.41,55.17-52.67,11.61-9.15,24.27-16.86,37.42-23.3,13.17-6.38,27.23-11.04,41.64-12.58,14.36-1.72,29.03-.38,42.65,4.37,13.64,4.66,26.07,12.6,36.34,22.83,10.32,10.21,18.6,22.49,25.16,35.59,6.36,13.02,11.35,26.8,15.58,40.72l-3.92,6.99c-3.53-3.21-7.5-5.67-11.56-7.97-4.76-2.73-9.56-5.39-14.42-7.94-9.7-5.13-19.56-10.01-29.69-14.32-10.19-4.15-20.53-8.05-31.25-10.91-5.33-1.48-10.76-2.76-16.26-3.66-2.77-.4-5.52-.89-8.34-.88-2.83.07-5.66.33-8.43.9-.44.09-.83.41-1,.87-.25.7.11,1.47.82,1.73l.14.05c2.66.95,5.27,1.6,7.88,2.05,2.61.46,5.21,1.16,7.83,1.53,5.22.95,10.42,2.27,15.55,3.79,10.3,2.95,20.34,6.95,30.24,11.19,9.97,4.1,19.77,8.72,29.41,13.63,4.83,2.44,9.61,4.98,14.35,7.6,4.06,2.27,8.16,4.48,12.61,6.1l-12.11,21.56c-7.15-2.44-14.48-3.84-21.86-4.96-8.27-1.29-16.56-2.42-24.88-3.38-16.63-1.95-33.37-3.14-50.16-3.34-16.79-.11-33.66.77-50.33,3.7-4.18.64-8.34,1.35-12.44,2.53-4.09,1.18-8.3,1.8-12.28,3.44-3.99,1.52-8.05,2.91-11.84,4.87-3.69,2.26-7.26,4.68-10.58,7.31-.41.33-.6.9-.44,1.43.22.7.96,1.08,1.66.86l.21-.07c4.03-1.28,7.81-2.76,11.47-4.41,3.79-1.41,7.72-2.51,11.49-3.96,3.76-1.52,7.88-2.06,11.79-3.15,3.93-1.09,7.97-1.73,12.04-2.3,16.16-2.65,32.7-3.32,49.19-3.02,16.49.08,33.03,1.03,49.49,2.8,8.23.86,16.45,1.88,24.64,3.07,6.85,1.06,13.72,1.93,20.68,2.4l-31.61,56.31c-17.48,31.04-34.58,62.38-49.82,94.71-15.02,32.4-28.49,65.73-37.37,100.56-4.43,17.39-7.7,35.14-9.09,53.11-.94,12.66-.86,25.52.94,38.12-2.54-4.15-5.55-7.94-8.8-11.45-6.86-7.35-14.41-13.88-22.26-19.98Zm206.79-79.44c-13.07,6.89-26.52,13.04-40.41,18.1-13.77,4.99-28.37,8.96-42.45,14.63-14.04,5.6-27.75,12.24-40.53,20.52-12.74,8.27-24.72,18.06-34.34,30.13-4.86,5.97-8.87,12.71-11.81,19.92-.58,1.5-1.07,3.05-1.53,4.61-.42-11.57-.27-23.13.73-34.66,1.46-17.52,4.75-34.89,9.2-51.96,8.92-34.18,22.41-67.09,37.49-99.14,3.8-8.15,7.73-16.23,11.74-24.29,1.24,2.41,2.6,4.74,4.04,7.03,2.4,3.84,4.69,7.76,6.89,11.72,4.4,7.92,8.39,16.06,11.97,24.34,3.67,8.25,6.8,16.7,9.33,25.32,1.06,4.35,2.31,8.67,2.96,13.09.94,4.4,1.35,8.76,3.33,13.2l.06.14c.17.38.5.67.93.77.74.18,1.48-.28,1.65-1.02,1.13-4.69,1.19-9.52.3-14.13-.59-4.69-1.79-9.21-2.8-13.8-2.45-9.04-5.52-17.88-9.11-26.47-3.82-8.49-8.1-16.75-12.76-24.78-2.33-4.01-4.76-7.97-7.29-11.85-1.97-3.11-4.1-6.13-6.84-8.73,11.07-21.92,22.77-43.55,34.74-65.05l10.17-18.24c2.97,3.22,6.15,6.19,9.4,9.09,4.1,3.74,8.07,7.64,11.92,11.65,7.7,8.02,14.8,16.62,21.28,25.62,6.68,8.86,12.71,18.22,17.89,28.03,2.71,4.85,5.04,9.88,7.27,14.96,2.38,5.03,4.19,10.23,7.68,14.96l.08.11c.28.37.73.59,1.22.54.74-.07,1.29-.73,1.21-1.47-.57-5.78-1.98-11.42-4.35-16.63-2.2-5.29-4.52-10.52-7.22-15.57-5.16-10.22-11.2-19.98-17.93-29.23-6.8-9.2-14.25-17.9-22.29-26.02-4.02-4.06-8.16-7.99-12.44-11.79-3.53-3.11-7.21-6.07-11.46-8.3l13.59-24.38c8.56-15.55,16.94-31.32,23.3-48.05,11.02-13.02,22.92-25.49,36.45-35.59,13.47-10.05,29.36-17.58,45.84-17.55,16.53-.24,31.97,8.06,44.11,19.47,12.36,11.45,21.17,26.13,26.46,42.16,10.88,32.12,9.04,67.7.11,100.54-4.42,16.53-10.82,32.52-18.41,47.9-4.06,8.13-8.47,16.06-13.02,23.94-16.3,23.6-36.03,44.94-59.16,62.16-11.79,8.9-24.26,16.88-37.19,24.01Zm25.21,763.59l2.76-28.28c.85-9.43,1.98-18.84,2.6-28.28l1.73-28.34c2.77-37.78,3.55-75.61,4.83-113.44.31-37.83,1.06-75.68.37-113.51-.81-75.67-3.68-151.29-8.04-226.81-2.13-37.77-4.63-75.51-7.48-113.22-2.79-36.83-5.93-73.64-10.84-110.29,4.34-2.58,8.69-5.15,12.91-7.93,2.67,36.6,5.89,73.15,9.14,109.68,3.31,38.01,6.32,76.05,9.09,114.09,5.61,76.1,9.75,152.3,12.58,228.53,3.14,76.22,4.31,152.53,2.64,228.74-1.58,75.08-6.39,150.11-17.92,224.3-12.78.32-25.55.52-38.33.53,4.25-17.05,8.17-34.2,12.08-51.39,3.17-18.67,5.88-37.43,8.61-56.18,1.54-9.36,2.4-18.79,3.28-28.21Zm-25.59,129.12c-.68-9.95-1.48-19.89-2.51-29.8l.49.03,3.6.27c1.2-.07,2.4-.04,3.6-.22l.26-.03c-1.7,9.93-3.52,19.85-5.44,29.75Zm-4.32-67.41l6.48.26c2.16-.06,4.32-.02,6.48-.2l2.77-.17c-1.5,10.41-3.13,20.79-4.85,31.17l-1.35-.17c-1.21-.19-2.41-.16-3.62-.24l-3.62.25-1.23.09c-1.13-10.15-2.4-20.27-3.93-30.36l-.1-.74,2.98.11Zm-522.35-551.04c2.57-12.04,5.56-23.97,8.81-35.82,3.38-11.8,6.74-23.71,11.33-34.87,4.49-11.21,10.58-21.44,19.87-28.61,9.21-7.26,20.57-12.28,31.64-17.61,22.33-10.47,44.81-21.16,66.61-32.97,22.06-11.43,42.66-25.56,65.97-31.81,11.49-3.09,23.68-4.77,34.93-1.81,11.29,2.61,21.1,9.87,27.6,19.66,6.69,9.69,10.78,21.22,13.55,32.96,2.63,11.46,4.15,23.34,4.67,35.15-2.73,1.14-5.44,2.33-8.13,3.55-1.68-3.81-4.2-6.92-6.91-9.83-2.97-3.27-6.08-6.39-9.25-9.46-6.39-6.09-13.18-11.76-20.36-16.92-7.24-5.09-14.95-9.52-22.94-13.35l-6.04-2.79-6.22-2.39c-4.08-1.73-8.57-2.51-13.13-2.42-.39.01-.79.19-1.05.53-.47.59-.36,1.46.23,1.93l.13.1c3.66,2.88,7.67,4.05,11.56,5.79l5.88,2.41,5.71,2.8c7.56,3.84,14.85,8.24,21.69,13.29,6.97,4.86,13.66,10.16,19.94,15.93,3.12,2.91,6.19,5.86,9.13,8.95,2.4,2.55,4.89,5.03,7.71,7.21-10.09,4.71-19.93,9.9-29.69,15.23-.11-.2-.16-.43-.35-.57-6.32-4.52-13.26-7.6-20.37-10.23-7.07-2.73-14.24-5.17-21.47-7.46-14.47-4.51-29.24-8.09-44.21-10.67-14.98-2.56-30.23-3.47-45.44-3.48l-11.42.36c-3.8.19-7.59.73-11.38,1.09-7.61.49-15.06,2.69-22.19,5.4-.5.19-.86.69-.86,1.26,0,.74.6,1.33,1.34,1.33h.1c15.16-.09,29.49-3.35,44.43-2.78,14.79.21,29.63,1.28,44.23,3.98,14.65,2.39,29.17,5.7,43.42,9.97,7.11,2.16,14.19,4.48,21.16,7.07,6.43,2.4,12.84,4.82,19.5,6.67-1.97,1.09-3.92,2.24-5.89,3.33-.04,0-.08-.02-.11,0-.29.06-.46.28-.67.45-11.9,6.59-23.78,13.23-35.53,20.07-2.6,1.52-5.18,3.07-7.78,4.6-5.88-1.57-11.83-2.04-17.79-2.28-6.67-.29-13.34-.43-20.02-.39-13.35.06-26.73.7-40.05,2.41-13.27,1.88-26.55,4.34-39.35,8.8-3.25.91-6.37,2.28-9.5,3.59-3.14,1.31-6.31,2.51-9.25,4.29-2.96,1.7-6.06,3.16-8.71,5.37-2.63,2.23-5.13,4.61-7.36,7.18-.32.37-.43.91-.22,1.39.29.68,1.07.99,1.74.71l.19-.08c3.13-1.33,5.99-2.83,8.72-4.48,2.72-1.66,5.78-2.83,8.54-4.43,2.76-1.64,5.82-2.72,8.81-3.93,2.99-1.21,5.96-2.46,9.12-3.29,12.3-4.09,25.25-6.3,38.19-7.93,12.95-1.8,26.07-2.63,39.2-2.85,6.57-.14,13.14-.08,19.7.11,3.53.13,7.07.24,10.61.21-23.6,14.05-46.91,28.62-69.7,44.01-27.55,18.86-54.46,38.8-79.5,61.1-12.43,11.24-24.42,23.06-35.11,36.15-7.06,8.8-13.71,18.45-18.17,29.02,5.55-43.53,10.64-87.1,20.15-129.86Zm259.97,84.45c-48.66,11.7-99.56,12.34-149.7,9.55-12.56-.47-25.03-2.33-38.09-2.06-12.9.26-25.8,2.11-38.22,5.88-12.42,3.71-24.21,9.74-34.47,17.74-4.89,3.92-9.33,8.36-13.3,13.17,4.86-8.38,10.54-16.3,16.74-23.86,10.45-12.65,22.29-24.2,34.61-35.21,24.83-21.86,51.66-41.49,79.14-60.07,27.44-18.68,55.61-36.31,84.25-53.18,10.92-6.44,21.96-12.66,33-18.88.97,2.9,2.06,5.73,3.21,8.55,1.84,4.5,3.48,9.08,4.97,13.71,2.97,9.26,5.2,18.73,6.68,28.28,1.65,9.53,2.13,19.2,1.75,28.79-.37,4.79-.75,9.58-1.8,14.26-.64,4.79-2.2,9.24-2.06,14.46v.23c.03.42.23.83.61,1.08.63.41,1.46.23,1.87-.39,2.82-4.29,5.03-9.07,5.8-14.11,1.21-4.97,1.73-10.03,2.21-15.1.61-10.14.3-20.34-1.23-30.34-1.68-9.97-4.21-19.76-7.44-29.28-1.63-4.76-3.41-9.46-5.4-14.08-1.25-3.02-2.67-5.97-4.48-8.74,1.87-1.04,3.71-2.15,5.58-3.19,14.36-7.94,28.74-15.84,42.73-24.49,11.81,3.38,23.53,7.44,34.78,12.28,11.47,4.83,22.53,10.67,32.42,17.91,9.8,7.24,18.44,16.38,22.55,27.44,4.23,11.03,2.95,23.44-1.88,34.46-10.01,22.39-26.45,42.04-46.78,56-20.3,14.16-43.86,23.31-68.06,29.2Zm218.13,395.79c-9.11-49.08-20.52-97.76-34.28-145.77-13.88-47.97-30.03-95.29-48.45-141.71-9.4-23.14-19.04-46.17-29.54-68.83-9.82-21.79-20.69-43.11-32.68-63.79,6.48-4.59,12.54-9.74,18.17-15.35,10.45,22.04,21.48,43.71,31.73,65.79,5.65,11.54,10.6,23.4,15.94,35.08l14.92,35.52c19.19,47.66,35.85,96.32,50.15,145.66,14.46,49.3,26.61,99.29,36.24,149.77,2.7,12.57,4.55,25.29,6.86,37.93l3.26,18.99,2.79,19.07c3.88,24.13,6.7,48.38,10.9,72.52-8.93,0-17.85-.08-26.78-.23-.63-11.21-1.55-22.41-2.49-33.6-1.13-12.43-2.92-24.79-4.6-37.15l-2.59-18.54-3.08-18.47c-2.11-12.3-3.93-24.65-6.46-36.88Zm-27.51,143.05c-.29-10.82-1.49-21.56-3.04-32.24.84.09,1.67.09,2.49.06l17.8-.5c3.94-.27,7.89-.44,11.83-.82l5.92-.51c1.07-.09,2.13-.25,3.19-.63,1.68,12.08,3.43,24.15,5.49,36.2-14.57-.27-29.13-.84-43.68-1.57Zm-5.91-70.05l17.89-.39c3.96-.24,7.94-.39,11.9-.75l5.95-.47c.98-.07,1.97-.19,2.95-.49l.56,3.91c1.47,9.33,2.78,18.69,4.07,28.05-.88-.15-1.76-.19-2.63-.17l-5.97.08c-3.98.02-7.96.24-11.93.37l-11.91.85-5.95.43c-.99.06-1.99.14-2.97.4-1.64-10.7-3.41-21.37-5.29-32.03,1.13.23,2.23.25,3.33.21Zm-275.85-194.98c-1.61-34.68,7.39-68.8,19.23-101.58,5.73-16.29,13.2-32.02,23.36-45.81,10.1-13.77,23.07-25.52,38.42-32.7,15.24-7.2,32.85-9.56,49.23-5.79,8.12,1.94,16.02,5.19,22.52,10.25,6.35,4.82,11.46,11.53,12.39,19.48-6.66,7.21-13.24,14.6-19.81,22.02-.63-2.16-1.76-4.19-3.1-5.89-2.86-3.26-6.18-6.06-9.9-7.89-7.32-3.93-15.39-5.67-23.38-6.11-8.02-.27-15.99.71-23.64,2.81-3.79,1.17-7.56,2.35-11.15,3.99-3.7,1.36-7.03,3.64-9.77,6.66-.24.27-.38.63-.36,1.02.05.77.7,1.35,1.47,1.31h.18c4.14-.25,7.37-1.93,10.88-3.08,3.4-1.41,6.94-2.36,10.47-3.32,7.12-1.58,14.38-2.52,21.59-2.14,7.17.23,14.39,1.66,20.57,4.82,3.19,1.45,5.78,3.67,8.03,6.02,1.54,2.07,2.68,4.16,3.86,6.53-8.41,9.63-16.7,19.43-24.77,29.44-8.45,10.55-16.49,21.43-24.17,32.56-.42.27-.84.53-1.26.79-1.6.79-2.85,1.96-4.46,2.76-3.05,1.76-6.34,3.23-9.78,4.48-6.85,2.54-14.14,4.39-21.46,6.52-7.27,2.27-14.72,4.66-21.71,8.51l-5.13,3.12-4.8,3.7c-1.46,1.42-2.89,2.89-4.12,4.49-1.05,1.78-1.93,3.66-2.49,5.63-.09.35-.06.73.14,1.07.38.66,1.22.89,1.88.51l.19-.11c1.76-1.02,3.2-2.12,4.47-3.33,1.43-1.07,2.78-2.18,4.04-3.39l4.31-3.06,4.67-2.6c6.45-3.16,13.46-5.49,20.65-7.58,7.16-2.24,14.52-4.3,21.8-7.18,1.64-.65,3.27-1.36,4.89-2.13-3.69,5.67-7.29,11.4-10.76,17.21-12.75,21.7-24.55,43.95-34.44,67.17-4.94,11.59-9.43,23.41-13.12,35.52-2.51,8.83-4.85,17.81-5.67,27.05-3.33-13.72-7.22-27.29-11.08-40.86-5.3-16.48-8.25-33.63-8.9-50.88Zm187.91-5.08c-11.74,11.89-24.61,22.34-39.14,30.54-14.43,8.29-29.94,14.74-45.7,20.71-15.74,6.03-31.9,11.4-47.39,19.1-7.74,3.81-15.25,8.44-21.76,14.45-3.32,2.97-6.24,6.42-8.69,10.17,4.76-19.78,11.38-39.31,19.59-58.11,9.89-22.78,21.77-44.76,34.54-66.08,12.79-21.33,26.77-41.94,42.22-61.46.17-.22.35-.43.53-.65.09,1.26.1,2.52.32,3.76.88,4.26,2.16,8.45,3.99,12.28,3.57,7.76,8.26,14.52,12.24,21.35,4.17,6.73,7.68,13.69,9.86,21.14,1.01,3.73,2.01,7.5,2.44,11.38.73,3.84.88,7.72,2.67,11.69l.07.16c.16.34.45.62.84.74.73.23,1.51-.17,1.73-.9,1.3-4.1,1.67-8.36.98-12.52-.38-4.18-1.34-8.3-2.35-12.4-2.18-8.17-5.85-15.9-10.03-23.02-4.3-7.05-9.03-13.57-12.36-20.48-1.75-3.43-2.9-7.02-3.75-10.66-.36-1.84-.46-3.7-.95-5.56-.11-1.1-.3-2.22-.56-3.35,5.94-7.33,11.98-14.58,18.16-21.77,8.08-9.4,16.36-18.86,22.68-29.88,7.68-1.3,15.51.34,22.4,3.74,7.28,3.35,13.64,8.57,19.05,14.53,10.88,12.01,17.21,27.91,18.21,44.09,1.11,16.26-3.11,32.61-10.46,47.27-7.36,14.73-17.71,27.95-29.43,39.73Zm31.09,61.76c-2.68-11.48-5.43-22.95-8.39-34.38-2.64-10.48-5.63-20.89-9.55-31.01,4.48-5.13,8.62-10.57,12.47-16.22,2.13,10.59,4.96,20.96,7.8,31.34l10.01,37.06c6.48,24.76,12.58,49.61,18.21,74.57,5.8,24.92,11.18,49.93,15.87,75.06,2.33,12.57,4.51,25.16,6.5,37.78,1.74,11.34,3.42,22.66,5.81,33.93-9.07-.48-18.14-1.07-27.19-1.76.06-10.76-.74-21.45-2.02-32.08-1.3-11.72-2.8-23.41-4.35-35.1-3.13-23.37-6.7-46.68-10.81-69.91-4.27-23.2-9.04-46.3-14.35-69.29Zm23.62,178.24c1.17,9.32,2.48,18.61,4.47,27.85-5.86-.46-11.74-.86-17.59-1.43-21.05-2.09-42.07-4.72-62.76-8.77.83-.35,1.66-.69,2.51-1.06,3.27-1.4,6.74-2.48,10.21-3.56,6.99-2.05,14.18-3.64,21.42-5.03,7.21-1.52,14.51-2.71,21.79-3.99l10.98-1.72c3.03-.46,6.04-1.02,8.97-2.3Zm-119.84-14.33c4.95-2.49,10.36-4.41,15.83-6.11,10.99-3.35,22.38-5.71,33.8-7.79,11.41-2.22,22.92-4.02,34.47-5.58l17.36-2.15c4.46-.51,8.91-1.11,13.31-2.29,0,.04.02.09.02.13,1.61,11.38,3.17,22.78,4.54,34.19-3.15-.56-6.23-.44-9.28-.07l-11.16,1.32c-7.45.93-14.85,2.19-22.24,3.61-7.36,1.56-14.7,3.39-21.95,5.69-3.62,1.21-7.24,2.44-10.79,4.06-2.85,1.26-5.78,2.81-8.02,5.33-7.8-1.67-15.55-3.49-23.09-5.89-4.99-1.54-9.97-3.23-14.54-5.53-3.96-2.04-8.29-4.61-9.59-8.32,0-.36.01-.72.01-1.09,0-.03-.02-.04-.03-.06l.03-.07c1.6-4.05,6.52-6.73,11.31-9.36Zm362.3,507.13c-4.61,3.27-9.95,5.74-15.36,8.02-10.92,4.41-22.53,7.41-34.23,9.73-23.47,4.6-47.52,6.46-71.5,6.8-23.97.51-47.97-1.31-71.52-5.63-23.14-4.41-46.1-11.31-65.99-23.21,1.21-1.85,1.47-3.7,1.53-5.56l.21-6.1c.18-4.07.16-8.14.22-12.2l-.26-12.21-.13-6.1c0-.41-.02-.83-.04-1.24,7.89,6.78,17.6,10.96,27.13,14.36,11.38,3.96,23.03,6.85,34.78,9.11,23.51,4.47,47.44,6.42,71.3,6.32,23.81-.19,47.69-1.8,71.28-5.9,11.79-2.1,23.52-4.82,34.92-8.89,5.71-2.01,11.31-4.45,16.6-7.59,3.21-1.95,6.32-4.24,9.06-6.96l-.11,4.84-.26,11.51c.07,3.83.04,7.67.22,11.51l.21,5.76c.04,1.26.2,2.51.71,3.77-1.53,4.01-4.95,7.23-8.79,9.87Zm116.07-383.78c-1.8,39.84-5.24,79.62-11.15,119.01-5.91,39.33-14.02,78.53-27.81,115.71-13.29,36.35-33.24,71.34-64.85,94.05-.65-.57-1.62-.6-2.26,0l-.08.08c-8.04,7.69-18.95,12.15-29.73,16.12-10.94,3.81-22.38,6.39-33.91,8.34-23.1,3.86-46.66,5.2-70.18,5.32-23.47.29-46.97-1.44-70.03-5.63-11.51-2.11-22.92-4.85-33.94-8.58-10.96-3.85-21.82-7.96-31.5-14.21l-.08-.05c-.05-.04-.11-.02-.17-.05-.05-.04-.06-.11-.12-.14-17.61-9.2-32.58-22.28-44.79-37.7-12.19-15.47-21.54-33.12-29.2-51.38-15.34-36.65-23.88-75.95-29.93-115.34-5.97-39.48-9.13-79.41-10.38-119.39-.64-19.99-.8-40.01-.51-60.01.3-17.61.71-35.23.85-52.85.26.3.51.63.77.91,2,2.17,4.33,3.79,6.71,5.25,4.8,2.85,9.84,4.99,14.94,6.94,10.29,3.52,20.74,6.29,31.31,8.39,21.12,4.24,42.42,6.99,63.74,9.22,42.68,4.3,85.53,5.99,128.37,6.16,42.83-.14,85.69-1.83,128.37-6.12,21.33-2.21,42.63-4.96,63.75-9.2,10.56-2.1,21.05-4.74,31.35-8.3,5.14-1.82,10.18-4.04,15.01-6.86,2.4-1.46,4.77-3.04,6.8-5.25.1-.11.21-.25.31-.37-.17,15.37-.17,30.73-.19,46.09-.09,19.95-.55,39.9-1.47,59.83Zm-144.51-106.21c.31-1.28.68-2.54.99-3.81,3.27,1.01,6.59,1.41,9.91,1.8l12.86,1.64c8.56,1.19,17.08,2.55,25.55,4.13,8.49,1.43,16.92,3.13,25.17,5.31,5.92,1.45,11.38,3.64,16.91,5.68-20.8,4.09-41.94,6.73-63.11,8.84-11.76,1.13-23.54,2.03-35.33,2.78,2.73-8.73,4.86-17.53,7.05-26.36Zm26.48-39.43l18.4,2.1c12.23,1.55,24.43,3.35,36.53,5.56,12.11,2.07,24.19,4.47,35.88,7.89,5.82,1.73,11.58,3.69,16.9,6.25,2.65,1.3,5.18,2.69,7.44,4.24,2.01,1.38,3.67,2.82,4.65,4.79-.01.35-.01.7-.01,1.05-.72,3.97-5.38,6.85-9.64,9.08-4.53,2.33-9.52,3.95-14.46,5.61-7.74,2.43-15.7,4.3-23.7,6.03-2.66-2.92-6.13-4.76-9.54-6.16-4.16-1.74-8.4-3.06-12.64-4.36-8.49-2.46-17.07-4.38-25.68-6.03-8.64-1.47-17.31-2.64-25.98-3.68l-13.02-1.39c-3.08-.35-6.18-.55-9.32-.3,1.83-7.2,3.65-14.41,5.62-21.57,1.06-3.83,2.21-7.65,3.31-11.48,5.06,1.28,10.17,1.85,15.28,2.37Zm23.72-142.32c-3.82,9.79-7.49,19.63-11.08,29.5-7.13,19.76-13.83,39.66-20.19,59.67-6.19,20.06-12.05,40.22-17.45,60.53-2.69,10.15-5.3,20.33-7.66,30.58-2.22,9.17-3.88,18.53-4.47,28.03-7.73.47-15.46.92-23.2,1.25,2.73-9.57,5.16-19.16,7.45-28.82,2.74-11.39,5.71-22.73,8.74-34.05,6.13-22.64,12.69-45.18,19.45-67.66,1.78-6.06,3.69-12.08,5.5-18.14.72-1.51,1.41-3.04,2.05-4.58l5.9-13.87,12.15-27.6,12.07-27.64,6.18-13.76c1.77-3.85,3.44-7.74,4.45-11.95,3.79,4.39,7.82,8.53,12.06,12.45-4.71,8.36-8.48,17.17-11.95,26.06Zm-3.03-41.78c-3.19,3.83-5.36,8.14-7.4,12.5l-6.44,13.69-8.07,17.67,7.65-24.02c3.01-9.2,5.94-18.42,8.28-27.85,1.91,2.74,3.89,5.43,5.99,8.01Zm180.24-464.26c6.17-8.65,13.48-16.49,22.09-22.18,8.59-5.67,18.83-8.52,28.89-7.11,10.11,1.12,19.6,6.19,28.08,12.3,8.51,6.24,16.04,13.82,23.19,21.95,3.68,3.95,7.27,7.97,10.54,12.26,3.33,4.22,6.88,8.3,9.82,12.8,12.58,17.43,22.79,36.54,29.45,56.86,3.57,10.09,5.71,20.61,7.52,31.15,1.35,10.61,2.32,21.31,2.06,32.06.06,21.6-3.71,42.75-6.97,64.53-5.1,39.56-4.76,79.42-2.1,118.8-3.46-10.59-7.86-20.86-12.83-30.76-6.64-13.68-13.89-26.99-21.24-40.24-14.8-26.44-30.37-52.38-45.8-78.36-12.56-20.87-25.01-41.78-37.18-62.84,2.99-2.6,5.84-4.99,9.1-6.89,4.04-2.34,8.79-3.26,13.51-3.85,9.65-.63,19.55,1.58,28.96,4.94,9.52,3.19,18.71,7.67,27.51,12.82,4.47,2.46,8.73,5.3,13.03,8.07,4.29,2.8,8.49,5.71,13.63,7.46l.09.03c.42.14.9.07,1.27-.22.6-.46.7-1.32.24-1.92-3.31-4.25-7.32-7.67-11.66-10.6-4.35-2.93-8.66-5.92-13.23-8.55-8.97-5.47-18.42-10.33-28.48-13.92-10.08-3.43-20.86-5.72-31.96-4.81-5.49.76-11.1,1.97-16.07,4.92-3.41,1.95-6.44,4.68-8.6,7.94-2.04-3.54-4.14-7.05-6.15-10.6-7.46-13.11-14.65-26.36-21.68-39.69l-10.43-20.05c-3.31-6.48-6.73-12.92-10.46-19.23,4.5-9.44,9.79-18.65,15.88-27.07Zm-149.08,145.98c.06-25.62,5.68-51.26,11.72-76.57,2.93-12.66,6.59-24.87,14.21-34.8,7.21-10.12,18.29-16.81,30.43-19.32,12.18-2.54,25.11-1.59,37.58,1.1,12.3,2.68,24.51,6.76,36.06,11.97,2.17,5.92,4.57,11.74,7.06,17.53-4.81.02-9.52.61-14.29,1.29-5.94.83-11.95,1.71-17.96,3.06-12.02,2.4-24.09,7.76-33.52,16.25-9.39,8.56-15.92,19.41-21.06,30.47-2.69,5.53-4.74,11.26-6.79,16.98-2.07,5.71-3.36,11.68-3.71,17.83-.02.47.2.95.63,1.22.64.4,1.47.21,1.86-.42l.06-.09c3.31-5.25,5.05-10.9,7.14-16.42,2.08-5.52,4.16-11.04,6.81-16.26,5.08-10.49,11.38-20.45,19.89-27.93,8.35-7.64,18.79-12.6,30.19-15.07,5.66-1.36,11.5-2.31,17.4-3.22,5.09-.75,10.23-1.67,15.22-3.45,3.05,6.44,6.18,12.83,9.41,19.18,3.79,7.29,7.64,14.55,11.54,21.78-5.21,2.05-10.03,4.91-14.56,8.17-5.45,3.85-10.67,8.07-15.52,12.71-9.7,9.26-17.98,20.16-23.97,32.26-5.88,12.16-9.41,25.32-11.08,38.59l-.83,9.99c-.24,3.33-.05,6.67-.09,9.99-.24,6.68,1.08,13.29,2.96,19.7.14.46.53.84,1.04.94.73.13,1.42-.35,1.56-1.08l.03-.17c1.2-6.64.43-13.01.76-19.42.09-3.2-.05-6.41.23-9.59l.94-9.53c1.79-12.61,5.32-24.94,10.99-36.23,5.48-11.38,13.07-21.72,22.15-30.61,4.53-4.45,9.45-8.54,14.61-12.3,4.31-3.12,8.74-6.05,12.94-9.5,2.6,4.78,5.19,9.57,7.86,14.31,14.77,26.44,30.18,52.48,45.66,78.45,15.61,25.89,31.33,51.68,46.22,77.9,7.4,13.13,14.69,26.32,21.34,39.79,1.65,3.38,3.33,6.73,5.07,10.07l4.76,10.19c.4.74.71,1.53,1.08,2.28-4.38-4.99-9.41-9.42-14.8-13.3-11.05-7.74-23.66-13.16-36.76-16.07-26.03-5.2-51.81-8.48-77.14-14.43-25.33-5.63-49.3-15.49-72.05-28.03-11.35-6.31-22.58-12.9-33.63-19.84-5.64-3.35-10.79-7.09-16.16-10.66-5-3.98-10.2-7.76-14.67-12.28-9.21-8.71-16.98-18.88-21.81-30.45-4.89-11.54-6.92-24.21-7.03-36.97Zm-6.06,154.6l5.1-11.95,10.21-23.9,9.7-24.1,4.85-12.06c1.02-2.48,1.96-5,2.65-7.63,4.11,3.73,8.5,7.11,12.84,10.54.09.06.18.12.27.18-1.46,2.35-2.51,4.86-3.48,7.4l-4.21,10.76-8.42,21.52-7.96,21.69-3.89,10.88c-.91,2.53-1.71,5.1-2.09,7.82-1.9-1.05-3.88-1.99-5.99-2.68-4.17-1.42-8.76-1.88-13.2-1.31,1.43-2.3,2.58-4.7,3.63-7.15Zm-40.07,53.63c3.18-8.8,7.64-17.19,13.51-24.34,5.83-7.13,13.13-13.41,21.53-15.39,8.38-2.04,17.23,1.28,24.38,6.97,7.24,5.6,13.45,13.04,18.67,20.85,3.94,11.14,9.04,21.7,14.26,32.21l8.72,17.41c-1.72-1.37-3.38-2.8-5.17-4.08-6.57-4.61-13.76-8.63-21.78-11-7.97-2.26-17.07-2.48-25.09.79-4.01,1.55-7.68,3.85-10.84,6.58-3.28,2.64-5.76,6.09-7.09,10.08-.11.35-.09.74.09,1.09.36.68,1.2.94,1.88.58l.15-.08c3.68-1.95,6.11-4.57,9.01-6.74,2.79-2.24,5.89-4.02,9.18-5.15,6.56-2.31,13.82-2.26,20.76-.18,6.98,1.92,13.68,5.39,19.91,9.57,3.11,2.13,6.12,4.41,9.05,6.81,2.06,1.79,4.22,3.46,6.58,4.96l.43.85c10.6,20.96,21.36,41.84,32.64,62.5,5.63,10.38,12.09,20.33,17.25,30.52,5.21,10.28,9.55,20.99,12.69,32.07s5.17,22.46,6.28,33.97c1.03,11.52,1.41,23.11,2.66,34.84.06.59.51,1.09,1.13,1.19.72.11,1.41-.39,1.52-1.11,3.65-23.44.89-47.63-5.17-70.7-3.16-11.53-7.57-22.71-12.88-33.39-5.38-10.79-11.63-20.63-17.15-30.9-5.65-10.18-11.19-20.44-16.65-30.74,2.66-1.98,5.61-2.46,9.31-2.3,4.51.48,9.17,2.2,13.55,4.42,8.8,4.52,16.74,10.98,23.78,18.15,7.18,7.07,13.38,15.16,18.4,23.89,2.46,4.39,4.66,8.93,6.45,13.62,1.73,4.73,3.3,9.42,5.75,14.17l.02.04c.21.4.6.68,1.08.73.76.08,1.43-.47,1.51-1.22.57-5.48-.62-10.84-2.4-15.9-1.82-5.06-4.07-9.94-6.6-14.67-5.17-9.39-11.57-18.07-19.06-25.74-7.6-7.54-16.13-14.24-25.93-19.08-4.92-2.36-10.19-4.31-16.05-4.84-2.93-.16-6.16.05-9.1,1.6-1.22.6-2.26,1.49-3.15,2.49-4.67-8.86-9.32-17.74-13.91-26.66l-15.47-30.34c1.32-3.82,2.96-6.86,5.79-9.07,3.48-2.55,8.27-3.66,13.16-3.83,9.87-.36,20.06,2.23,29.69,5.7,9.74,3.35,19.11,7.93,28.02,13.27,4.43,2.7,8.74,5.61,12.92,8.69,4.16,3.13,8.26,6.25,13.16,8.68.41.2.93.2,1.34-.05.65-.39.86-1.23.47-1.89-2.88-4.76-6.87-8.49-11.13-11.8-4.29-3.29-8.71-6.4-13.28-9.29-9.16-5.73-18.84-10.69-29.07-14.43-10.28-3.53-21.08-6.17-32.47-5.6-5.63.32-11.64,1.59-16.75,5.43-2.36,1.88-4.33,4.4-5.41,7.22-4.19-8.19-8.54-16.3-13.53-24.1,9.07-15.57,23.46-28.61,40.94-32.1,17.7-3.58,36.35,1.64,52.7,10.11,16.51,8.15,29.91,21.6,39.27,37.48,9.46,15.89,15.24,33.89,18.66,52.23,6.8,36.76,5.47,75.21-2.3,111.84-2.05,9.22-4.55,18.01-8.83,26.12-4.2,8.17-9.68,15.72-15.53,23.08-5.89,7.34-11.98,14.71-17.51,22.69-3.66,5.54-6.91,11.54-9.15,17.89-.18-1.94-.38-3.88-.73-5.8-1.1-4.9-2.61-9.71-4.61-14.32-4.26-9.07-9.8-17.49-16.35-24.93-13-15.01-28.52-27.3-44.59-38.43-16.01-11.17-33.38-20.68-49.78-30.4-16.15-10.15-31.1-22.32-42.97-37.07-11.96-14.6-20.78-31.82-24.53-50.25-3.84-18.36-2.62-37.84,3.77-55.47Zm-41.46,164.37c6.03-17.58,12.22-35.11,18.53-52.62l9.49-26.24c2.1-5.68,4.09-11.4,5.79-17.22,3.22,10.34,7.86,20.22,13.67,29.34-4.49,9.84-8.06,20.01-11.46,30.22l-10.95,33.54c-7.19,22.39-14.2,44.84-20.96,67.38-6.59,22.58-12.97,45.23-18.94,68.01-2.95,11.4-5.84,22.82-8.49,34.31-2.32,9.98-4.24,20.13-4.99,30.43-6.13.24-12.27.39-18.4.55,3.53-17.41,6.82-34.91,9.88-52.46l4.84-44.68c2.42-6.98,4.34-14.03,6.34-21.1,2.44-8.93,5.14-17.81,7.92-26.66,5.56-17.7,11.57-35.29,17.75-52.81Zm121.78-918.32c12.21-13.95,29.8-22.32,47.94-27.16,18.33-4.85,37.4-5.89,56.76-7.29,38.52-2.79,77.09-6.41,115.43-6.05,19.1.34,38.27,2.16,55.91,8.65,15.85,5.97,29.67,16.14,42.91,27.27,19.65,23.21,38.34,47.59,54.31,73.72,16.55,26.24,30.3,54.19,45.01,81.75,14.43,27.52,30.21,54.81,33.84,85.35,2.09,15.26,1.97,30.57,2.39,46.41.65,12.23,1.67,24.37,3.42,36.44-3.39-7.02-7.45-13.76-12.39-19.92-7.24-8.82-15.93-16.36-25.1-22.84-18.4-12.98-37.77-23.8-56.63-35.48-18.96-11.52-37.6-23.43-56.15-35.61-18.68-12.24-38.07-23.42-58.02-33.46-19.79-9.91-40.13-18.67-60.88-26.33,6.11-1.84,12.65-2.85,19.2-3.62,8.91-1.11,18.01-1.06,27.06-.87,18.14.72,36.22,3.53,53.89,7.81,17.71,4.14,35.06,9.81,51.82,16.92,8.21,3.91,16.57,7.54,24.41,12.17,8.11,4.18,15.6,9.26,24.19,12.93l.11.05c.51.21,1.11.1,1.51-.33.49-.54.45-1.38-.09-1.88-6.89-6.27-14.37-11.97-22.61-16.31-7.98-4.83-16.48-8.64-24.85-12.73-17.07-7.45-34.74-13.44-52.83-17.88-18.13-4.25-36.65-6.92-55.32-7.49-9.34-.11-18.7-.07-28.07,1.18-8.32.98-17.16,2.65-24.49,7.88-19.2-6.87-38.71-12.86-58.45-17.92-26.31-6.57-53.03-11.88-79.94-15.31,15.71-12.24,33.19-22.94,52.13-30.31,18.85-7.73,38.63-12.86,58.77-16.76,20.35-4.2,40.44-9.73,60.03-16.77,9.77-3.61,19.42-7.54,28.83-12.03,9.4-4.52,18.58-9.63,26.39-16.93.41-.39.55-1.01.29-1.55-.32-.66-1.11-.94-1.78-.62l-.1.05-27.52,13.31c-9.24,4.3-18.74,8.07-28.36,11.52-19.3,6.73-39.13,11.98-59.21,15.93-20.32,4.07-40.61,9.54-59.9,17.63-9.65,4.02-19.11,8.56-28.1,14.01-8.94,5.49-17.65,11.61-24.12,20.42-.37.51-.36,1.18-.07,1.75-10.8-1.32-21.63-2.34-32.47-2.99.71-3.77,1.3-7.56,2.17-11.28.95-4.44,2.77-8.66,4.68-12.8,4.11-8.2,10.1-15.44,16.86-21.79,6.52-6.65,14.28-12.06,22.15-17.22,4.13-2.31,8.18-4.74,12.36-6.96,4.29-2.03,8.46-4.26,12.2-7.69l.08-.07c.31-.29.48-.72.43-1.18-.1-.75-.79-1.28-1.54-1.19-10.03,1.3-18.33,6.84-26.97,11.41-8.33,5.21-16.58,10.72-23.73,17.69-7.14,6.9-13.48,14.88-17.87,24.02-2.06,4.63-3.96,9.34-4.96,14.36-.91,4.05-1.31,8.29-.34,12.5-3.8-.19-7.59-.39-11.39-.49-6.11-17.64-10.46-36.11-10.69-54.57-.21-18.69,5.09-37.6,17.45-51.43Zm390.16,292.7c-27.13-3.71-54.68-2.76-81.58,1.77-13.44,2.33-26.73,5.6-39.71,9.84-13.07,4.2-25.49,9.8-37.91,14.52-25.03,9.29-51.01,16.28-77.54,17.24-26.51,1.23-53.07-3.06-79.19-9.01-13.09-2.9-26.11-6.31-39.14-9.71l-19.52-5.24-18.89-6.15c-24.65-9.62-46.71-25.46-63.61-45.76-15.38-19.17-26.81-41.68-33.36-65.48-.03-1.71-.12-3.41-.26-5.1-.11-3.36-.3-6.7-.61-10.03-.18-6.65-.21-13.33.88-19.81,1.73-13,7.34-25.32,16.83-33.89,9.4-8.72,22.11-13.49,35.13-15.57,6.53-1.06,13.21-1.46,19.89-1.37,6.67.15,13.36.52,20.13.34h.09s.01-.01.02-.01c.02,0,.03.03.05.03,1.9.29,3.8.54,5.7.81-2.75,2.17-5.02,4.77-7.14,7.48-2.97,3.69-5.76,7.53-8.42,11.45-5.29,7.87-9.94,16.19-13.78,24.92-3.81,8.75-6.32,18.06-8.03,27.46l-1.01,7.12c-.23,2.38-.25,4.79-.39,7.18-.46,4.78.54,9.64,2.18,14.2.14.38.45.7.87.83.71.22,1.47-.18,1.69-.89l.07-.22c1.46-4.73,1.01-9.15,1.54-13.66.17-2.24.23-4.49.49-6.72l1.09-6.67c1.81-8.81,4.34-17.54,8.15-25.78,3.54-8.33,7.8-16.4,12.74-24.05,2.48-3.82,5.09-7.57,7.88-11.17,2.63-3.41,5.3-6.79,7.35-10.72,18.35,2.56,36.63,4.66,54.83,7.58,1.33.21,2.66.46,3.98.68-1.97,4.99-3.07,10.18-3.9,15.4-1.07,6.36-1.92,12.76-2.54,19.17-1.26,12.84-1.67,25.78-1.09,38.72.94,12.93,2.99,25.81,6.36,38.39,2.06,6.19,3.85,12.47,6.74,18.37,2.33,6.11,6.26,11.56,10.67,16.38.32.35.83.52,1.33.39.71-.19,1.14-.93.94-1.64l-.06-.2c-1.72-6.36-4.92-11.58-7.06-17.46-2.66-5.62-4.26-11.67-6.15-17.59-3.04-12.1-4.83-24.53-5.54-37.05-.69-12.53-.49-25.13.57-37.68.52-6.28,1.25-12.55,2.22-18.77.8-5.19,1.56-10.4,1.89-15.69,19,3.22,37.86,7.21,56.52,12.01,42.74,11.13,84.43,26.45,123.82,46.37,19.73,9.88,38.94,20.81,57.45,32.83,18.63,12.1,37.46,24.02,56.51,35.47,18.93,11.6,38.44,22.41,56.4,34.96,8.89,6.37,17.41,13.15,24.48,21.32,3.53,3.9,6.71,8.11,9.68,12.5-6.29-5.2-13.69-9.11-20.99-12.28-12.79-5.19-26.2-8.48-39.75-10.35Z"/>
  </g>
</svg>